<?xml version="1.0" encoding="UTF-8" standalone="no"?>
<svg
   xmlns:dc="http://purl.org/dc/elements/1.1/"
   xmlns:cc="http://creativecommons.org/ns#"
   xmlns:rdf="http://www.w3.org/1999/02/22-rdf-syntax-ns#"
   xmlns:svg="http://www.w3.org/2000/svg"
   xmlns="http://www.w3.org/2000/svg"
   viewBox="0 0 1066.6667 1066.6667"
   height="1066.6667"
   width="1066.6667"
   xml:space="preserve"
   id="svg2"
   version="1.1"><metadata
     id="metadata8"><rdf:RDF><cc:Work
         rdf:about=""><dc:format>image/svg+xml</dc:format><dc:type
           rdf:resource="http://purl.org/dc/dcmitype/StillImage" /></cc:Work></rdf:RDF></metadata><defs
     id="defs6" /><g
     transform="matrix(1.3333333,0,0,-1.3333333,0,1066.6667)"
     id="g10"><g
       transform="scale(0.1)"
       id="g12"><path
         id="path14"
         style="fill:#ffffff;fill-opacity:1;fill-rule:nonzero;stroke:none"
         d="M 8000,0 H 0 V 8000 H 8000 V 0" /><path
         id="path16"
         style="fill:#272935;fill-opacity:1;fill-rule:nonzero;stroke:none"
         d="m 2833.92,222.012 c 0,-7.032 1.09,-13.012 3.27,-17.953 2.19,-4.938 5.18,-8.649 8.98,-11.149 3.8,-2.5 7.95,-3.769 12.44,-3.769 4.56,0 8.72,1.191 12.49,3.57 3.77,2.371 6.78,6.019 9.02,10.918 2.25,4.91 3.37,11.062 3.37,18.383 0,6.918 -1.12,12.847 -3.37,17.828 -2.24,4.961 -5.28,8.75 -9.11,11.39 -3.84,2.622 -8.03,3.93 -12.59,3.93 -4.74,0 -8.99,-1.351 -12.73,-4.031 -3.73,-2.688 -6.63,-6.539 -8.68,-11.578 -2.07,-5.039 -3.09,-10.879 -3.09,-17.539 z m 51,-38.082 v 2.57 c -3.48,-3.98 -6.92,-7.238 -10.31,-9.719 -3.38,-2.519 -7.06,-4.422 -11.02,-5.711 -3.95,-1.32 -8.27,-1.949 -12.96,-1.949 -6.21,0 -11.95,1.309 -17.24,3.93 -5.28,2.629 -9.86,6.379 -13.72,11.269 -3.87,4.86 -6.79,10.578 -8.79,17.18 -1.99,6.59 -2.99,13.711 -2.99,21.371 0,16.211 3.96,28.848 11.88,37.91 7.91,9.039 18.33,13.578 31.25,13.578 7.46,0 13.77,-1.289 18.89,-3.847 5.13,-2.563 10.13,-6.532 15.01,-11.821 v 38.258 c 0,5.34 1.06,9.34 3.19,12.071 2.11,2.722 5.13,4.089 9.06,4.089 3.93,0 6.95,-1.25 9.07,-3.75 2.12,-2.519 3.18,-6.199 3.18,-11.078 V 183.93 c 0,-4.95 -1.13,-8.641 -3.41,-11.121 -2.28,-2.457 -5.22,-3.688 -8.84,-3.688 -3.54,0 -6.47,1.27 -8.79,3.828 -2.31,2.582 -3.46,6.231 -3.46,10.981" /><path
         id="path18"
         style="fill:#272935;fill-opacity:1;fill-rule:nonzero;stroke:none"
         d="m 2948.54,230.18 h 47.02 c -0.62,8.859 -3.03,15.5 -7.17,19.902 -4.15,4.406 -9.61,6.598 -16.38,6.598 -6.46,0 -11.77,-2.231 -15.91,-6.68 -4.15,-4.469 -6.66,-11.07 -7.56,-19.82 z m 50.72,-14.731 h -50.72 c 0.07,-5.879 1.25,-11.078 3.57,-15.57 2.3,-4.488 5.38,-7.891 9.21,-10.149 3.83,-2.289 8.06,-3.421 12.68,-3.421 3.1,0 5.93,0.351 8.5,1.07 2.57,0.742 5.05,1.883 7.46,3.441 2.41,1.539 4.62,3.2 6.65,4.981 2.02,1.781 4.64,4.199 7.88,7.23 1.33,1.129 3.23,1.719 5.71,1.719 2.65,0 4.8,-0.75 6.44,-2.211 1.65,-1.469 2.48,-3.5 2.48,-6.168 0,-2.351 -0.93,-5.062 -2.75,-8.211 -1.85,-3.14 -4.62,-6.148 -8.32,-9.019 -3.71,-2.891 -8.35,-5.27 -13.97,-7.172 -5.59,-1.91 -12.04,-2.848 -19.32,-2.848 -16.65,0 -29.6,4.75 -38.85,14.238 -9.24,9.493 -13.86,22.379 -13.86,38.653 0,7.679 1.13,14.789 3.41,21.328 2.29,6.558 5.61,12.172 9.97,16.859 4.37,4.68 9.76,8.281 16.16,10.781 6.39,2.5 13.48,3.75 21.27,3.75 10.13,0 18.82,-2.128 26.06,-6.41 7.26,-4.281 12.7,-9.8 16.3,-16.558 3.6,-6.782 5.41,-13.692 5.41,-20.711 0,-6.539 -1.87,-10.762 -5.6,-12.692 -3.73,-1.929 -8.99,-2.91 -15.77,-2.91" /><path
         id="path20"
         style="fill:#272935;fill-opacity:1;fill-rule:nonzero;stroke:none"
         d="m 3117.41,203.031 c 0,-7.152 -1.74,-13.281 -5.23,-18.379 -3.47,-5.101 -8.62,-8.972 -15.43,-11.601 -6.8,-2.621 -15.08,-3.93 -24.84,-3.93 -9.3,0 -17.28,1.43 -23.93,4.281 -6.65,2.828 -11.56,6.399 -14.72,10.657 -3.17,4.3 -4.75,8.582 -4.75,12.89 0,2.852 1.01,5.281 3.04,7.313 2.02,2.008 4.59,3.027 7.7,3.027 2.71,0 4.8,-0.668 6.26,-2 1.46,-1.328 2.85,-3.199 4.17,-5.578 2.66,-4.652 5.85,-8.07 9.56,-10.371 3.7,-2.27 8.74,-3.418 15.15,-3.418 5.19,0 9.45,1.168 12.77,3.469 3.32,2.328 4.98,4.968 4.98,7.929 0,4.571 -1.72,7.879 -5.17,9.969 -3.45,2.082 -9.14,4.102 -17.05,5.992 -8.93,2.211 -16.19,4.551 -21.8,6.989 -5.61,2.429 -10.08,5.652 -13.44,9.628 -3.35,3.993 -5.03,8.911 -5.03,14.731 0,5.172 1.55,10.101 4.65,14.73 3.11,4.602 7.68,8.301 13.74,11.051 6.03,2.75 13.33,4.141 21.88,4.141 6.71,0 12.75,-0.699 18.09,-2.11 5.35,-1.371 9.83,-3.261 13.4,-5.601 3.58,-2.328 6.3,-4.93 8.16,-7.781 1.87,-2.848 2.8,-5.618 2.8,-8.36 0,-2.969 -1,-5.41 -2.99,-7.32 -1.99,-1.879 -4.82,-2.848 -8.5,-2.848 -2.66,0 -4.92,0.758 -6.79,2.301 -1.86,1.508 -4,3.789 -6.41,6.82 -1.96,2.539 -4.26,4.567 -6.93,6.086 -2.66,1.532 -6.27,2.274 -10.83,2.274 -4.69,0 -8.58,-0.981 -11.68,-2.992 -3.1,-1.989 -4.66,-4.469 -4.66,-7.438 0,-2.742 1.14,-4.961 3.42,-6.703 2.28,-1.758 5.35,-3.199 9.22,-4.34 3.86,-1.129 9.17,-2.519 15.96,-4.16 8.03,-1.969 14.6,-4.309 19.7,-7.027 5.09,-2.711 8.95,-5.942 11.6,-9.653 2.62,-3.711 3.93,-7.929 3.93,-12.668" /><path
         id="path22"
         style="fill:#272935;fill-opacity:1;fill-rule:nonzero;stroke:none"
         d="m 3156.72,259.82 v -74.941 c 0,-5.188 -1.23,-9.117 -3.7,-11.77 -2.48,-2.66 -5.6,-3.988 -9.41,-3.988 -3.8,0 -6.89,1.348 -9.26,4.078 -2.38,2.723 -3.56,6.621 -3.56,11.68 v 74.18 c 0,5.121 1.18,8.992 3.56,11.582 2.37,2.597 5.46,3.91 9.26,3.91 3.81,0 6.93,-1.313 9.41,-3.91 2.47,-2.59 3.7,-6.211 3.7,-10.821 z m -12.82,26.782 c -3.61,0 -6.7,1.109 -9.26,3.32 -2.56,2.207 -3.85,5.348 -3.85,9.418 0,3.672 1.31,6.68 3.94,9.062 2.63,2.379 5.69,3.567 9.17,3.567 3.36,0 6.33,-1.067 8.92,-3.239 2.6,-2.148 3.9,-5.269 3.9,-9.39 0,-4.008 -1.27,-7.11 -3.8,-9.36 -2.53,-2.25 -5.54,-3.378 -9.02,-3.378" /><path
         id="path24"
         style="fill:#272935;fill-opacity:1;fill-rule:nonzero;stroke:none"
         d="m 3195.18,222.68 c 0,-10.508 2.29,-18.461 6.88,-23.828 4.59,-5.391 10.53,-8.09 17.81,-8.09 4.3,0 8.37,1.168 12.2,3.48 3.84,2.297 6.95,5.797 9.37,10.449 2.39,4.649 3.6,10.289 3.6,16.95 0,10.57 -2.32,18.808 -6.98,24.691 -4.66,5.879 -10.78,8.828 -18.38,8.828 -7.41,0 -13.35,-2.82 -17.8,-8.461 -4.47,-5.629 -6.7,-13.629 -6.7,-24.019 z m 75.13,32.871 V 180.23 c 0,-8.609 -0.93,-16.031 -2.77,-22.238 -1.82,-6.191 -4.77,-11.332 -8.82,-15.371 -4.06,-4.051 -9.36,-7.07 -15.91,-9.031 -6.55,-1.969 -14.7,-2.949 -24.46,-2.949 -8.93,0 -16.9,1.25 -23.94,3.75 -7.02,2.519 -12.43,5.75 -16.24,9.691 -3.79,3.969 -5.7,8.027 -5.7,12.207 0,3.16 1.08,5.762 3.24,7.731 2.15,2.019 4.75,3.011 7.78,3.011 3.8,0 7.13,-1.679 9.98,-5.043 1.38,-1.699 2.82,-3.437 4.31,-5.168 1.49,-1.761 3.15,-3.25 4.94,-4.48 1.81,-1.231 3.98,-2.141 6.51,-2.75 2.53,-0.59 5.45,-0.899 8.74,-0.899 6.71,0 11.92,0.938 15.63,2.809 3.7,1.859 6.3,4.48 7.79,7.84 1.49,3.34 2.36,6.93 2.61,10.781 0.25,3.828 0.44,9.981 0.57,18.469 -4,-5.578 -8.59,-9.82 -13.83,-12.731 -5.22,-2.91 -11.44,-4.379 -18.66,-4.379 -8.67,0 -16.25,2.231 -22.75,6.661 -6.48,4.441 -11.47,10.629 -14.95,18.621 -3.49,7.988 -5.22,17.187 -5.22,27.629 0,7.781 1.05,14.828 3.17,21.078 2.13,6.293 5.16,11.562 9.08,15.883 3.92,4.289 8.45,7.539 13.58,9.718 5.12,2.192 10.76,3.289 16.9,3.289 7.34,0 13.71,-1.429 19.1,-4.218 5.37,-2.84 10.38,-7.25 15,-13.27 v 3.52 c 0,4.488 1.1,7.968 3.32,10.449 2.22,2.461 5.07,3.711 8.56,3.711 5,0 8.32,-1.641 9.96,-4.899 1.65,-3.261 2.48,-7.972 2.48,-14.101" /><path
         id="path26"
         style="fill:#272935;fill-opacity:1;fill-rule:nonzero;stroke:none"
         d="m 3311.52,260.199 v -3.129 c 4.55,6.02 9.54,10.43 14.95,13.239 5.42,2.812 11.64,4.242 18.67,4.242 6.84,0 12.95,-1.5 18.33,-4.469 5.38,-2.992 9.41,-7.191 12.06,-12.621 1.72,-3.18 2.82,-6.602 3.32,-10.27 0.51,-3.671 0.77,-8.359 0.77,-14.07 v -48.242 c 0,-5.188 -1.19,-9.117 -3.57,-11.77 -2.37,-2.66 -5.45,-3.988 -9.25,-3.988 -3.87,0 -7,1.348 -9.41,4.078 -2.41,2.723 -3.61,6.621 -3.61,11.68 v 43.23 c 0,8.532 -1.19,15.071 -3.56,19.602 -2.38,4.519 -7.1,6.801 -14.2,6.801 -4.62,0 -8.83,-1.391 -12.63,-4.141 -3.8,-2.75 -6.59,-6.539 -8.36,-11.351 -1.27,-3.86 -1.9,-11.071 -1.9,-21.661 v -32.48 c 0,-5.25 -1.23,-9.199 -3.65,-11.828 -2.44,-2.621 -5.59,-3.93 -9.45,-3.93 -3.75,0 -6.81,1.348 -9.22,4.078 -2.4,2.723 -3.61,6.621 -3.61,11.68 v 74.941 c 0,4.95 1.08,8.641 3.23,11.082 2.15,2.418 5.1,3.649 8.83,3.649 2.28,0 4.34,-0.551 6.18,-1.621 1.83,-1.09 3.31,-2.7 4.42,-4.84 1.11,-2.149 1.66,-4.789 1.66,-7.891" /><path
         id="path28"
         style="fill:#272935;fill-opacity:1;fill-rule:nonzero;stroke:none"
         d="m 3418.55,230.18 h 47.01 c -0.63,8.859 -3.02,15.5 -7.17,19.902 -4.15,4.406 -9.61,6.598 -16.38,6.598 -6.46,0 -11.77,-2.231 -15.92,-6.68 -4.15,-4.469 -6.65,-11.07 -7.54,-19.82 z m 50.71,-14.731 h -50.71 c 0.07,-5.879 1.24,-11.078 3.56,-15.57 2.31,-4.488 5.38,-7.891 9.22,-10.149 3.82,-2.289 8.05,-3.421 12.67,-3.421 3.1,0 5.94,0.351 8.51,1.07 2.55,0.742 5.04,1.883 7.46,3.441 2.39,1.539 4.61,3.2 6.65,4.981 2.01,1.781 4.64,4.199 7.87,7.23 1.33,1.129 3.23,1.719 5.7,1.719 2.66,0 4.81,-0.75 6.46,-2.211 1.65,-1.469 2.47,-3.5 2.47,-6.168 0,-2.351 -0.92,-5.062 -2.76,-8.211 -1.84,-3.14 -4.61,-6.148 -8.31,-9.019 -3.71,-2.891 -8.35,-5.27 -13.96,-7.172 -5.6,-1.91 -12.05,-2.848 -19.33,-2.848 -16.65,0 -29.6,4.75 -38.85,14.238 -9.24,9.493 -13.86,22.379 -13.86,38.653 0,7.679 1.14,14.789 3.41,21.328 2.28,6.558 5.61,12.172 9.98,16.859 4.37,4.68 9.76,8.281 16.15,10.781 6.39,2.5 13.49,3.75 21.28,3.75 10.12,0 18.8,-2.128 26.06,-6.41 7.25,-4.281 12.68,-9.8 16.29,-16.558 3.61,-6.782 5.42,-13.692 5.42,-20.711 0,-6.539 -1.87,-10.762 -5.61,-12.692 -3.73,-1.929 -8.99,-2.91 -15.77,-2.91" /><path
         id="path30"
         style="fill:#272935;fill-opacity:1;fill-rule:nonzero;stroke:none"
         d="m 3523.96,222.012 c 0,-7.032 1.09,-13.012 3.28,-17.953 2.18,-4.938 5.17,-8.649 8.98,-11.149 3.79,-2.5 7.94,-3.769 12.43,-3.769 4.57,0 8.73,1.191 12.49,3.57 3.77,2.371 6.78,6.019 9.03,10.918 2.25,4.91 3.37,11.062 3.37,18.383 0,6.918 -1.12,12.847 -3.37,17.828 -2.25,4.961 -5.29,8.75 -9.12,11.39 -3.84,2.622 -8.03,3.93 -12.59,3.93 -4.74,0 -8.99,-1.351 -12.72,-4.031 -3.73,-2.688 -6.63,-6.539 -8.69,-11.578 -2.06,-5.039 -3.09,-10.879 -3.09,-17.539 z m 51,-38.082 v 2.57 c -3.48,-3.98 -6.91,-7.238 -10.3,-9.719 -3.39,-2.519 -7.06,-4.422 -11.02,-5.711 -3.95,-1.32 -8.27,-1.949 -12.96,-1.949 -6.21,0 -11.95,1.309 -17.24,3.93 -5.29,2.629 -9.86,6.379 -13.72,11.269 -3.87,4.86 -6.8,10.578 -8.79,17.18 -1.99,6.59 -2.99,13.711 -2.99,21.371 0,16.211 3.95,28.848 11.87,37.91 7.91,9.039 18.33,13.578 31.25,13.578 7.47,0 13.77,-1.289 18.9,-3.847 5.13,-2.563 10.13,-6.532 15,-11.821 v 38.258 c 0,5.34 1.07,9.34 3.19,12.071 2.11,2.722 5.15,4.089 9.07,4.089 3.92,0 6.95,-1.25 9.07,-3.75 2.12,-2.519 3.18,-6.199 3.18,-11.078 V 183.93 c 0,-4.95 -1.14,-8.641 -3.42,-11.121 -2.28,-2.457 -5.22,-3.688 -8.83,-3.688 -3.54,0 -6.47,1.27 -8.79,3.828 -2.31,2.582 -3.47,6.231 -3.47,10.981" /><path
         id="path32"
         style="fill:#272935;fill-opacity:1;fill-rule:nonzero;stroke:none"
         d="m 3682.18,221.25 c 0,-10.309 2.36,-18.238 7.07,-23.77 4.72,-5.55 10.91,-8.339 18.57,-8.339 6.52,0 12.15,2.828 16.86,8.519 4.71,5.66 7.07,13.789 7.07,24.352 0,6.84 -0.97,12.738 -2.94,17.679 -1.96,4.938 -4.74,8.75 -8.35,11.438 -3.61,2.68 -7.83,4.031 -12.64,4.031 -4.93,0 -9.34,-1.351 -13.2,-4.031 -3.86,-2.688 -6.9,-6.578 -9.12,-11.68 -2.21,-5.09 -3.32,-11.168 -3.32,-18.199 z m -1.24,77.031 v -39.59 c 4.88,5.059 9.85,8.95 14.91,11.618 5.07,2.703 11.34,4.05 18.81,4.05 8.62,0 16.16,-2.058 22.66,-6.121 6.48,-4.097 11.51,-10.019 15.1,-17.769 3.57,-7.758 5.37,-16.949 5.37,-27.598 0,-7.851 -1,-15.039 -3,-21.601 -1.99,-6.559 -4.89,-12.25 -8.69,-17.051 -3.8,-4.809 -8.4,-8.539 -13.81,-11.168 -5.42,-2.621 -11.39,-3.93 -17.91,-3.93 -3.99,0 -7.75,0.469 -11.25,1.43 -3.53,0.929 -6.52,2.179 -8.98,3.75 -2.47,1.539 -4.57,3.14 -6.32,4.781 -1.74,1.637 -4.04,4.117 -6.89,7.418 v -2.57 c 0,-4.871 -1.17,-8.559 -3.51,-11.078 -2.34,-2.5 -5.32,-3.731 -8.93,-3.731 -3.67,0 -6.6,1.231 -8.78,3.731 -2.19,2.519 -3.28,6.207 -3.28,11.078 v 113.222 c 0,5.246 1.06,9.239 3.17,11.907 2.13,2.703 5.1,4.05 8.89,4.05 4,0 7.06,-1.289 9.21,-3.847 2.15,-2.582 3.23,-6.211 3.23,-10.981" /><path
         id="path34"
         style="fill:#272935;fill-opacity:1;fill-rule:nonzero;stroke:none"
         d="m 3791.4,165.879 2.37,5.801 -31.91,80.351 c -1.96,4.61 -2.95,7.989 -2.95,10.078 0,2.211 0.58,4.262 1.72,6.153 1.14,1.918 2.7,3.437 4.69,4.57 2,1.148 4.07,1.719 6.23,1.719 3.73,0 6.55,-1.192 8.45,-3.571 1.91,-2.371 3.58,-5.769 5.03,-10.199 l 21.95,-63.832 20.8,59.36 c 1.64,4.8 3.13,8.57 4.46,11.312 1.33,2.711 2.74,4.551 4.22,5.488 1.49,0.95 3.6,1.442 6.32,1.442 1.98,0 3.85,-0.531 5.66,-1.582 1.8,-1.039 3.19,-2.438 4.17,-4.219 0.98,-1.781 1.48,-3.629 1.48,-5.609 -0.26,-1.192 -0.66,-2.911 -1.24,-5.129 -0.57,-2.211 -1.26,-4.473 -2.08,-6.742 l -33.82,-88.52 c -2.92,-7.789 -5.76,-13.879 -8.55,-18.32 -2.79,-4.43 -6.47,-7.848 -11.07,-10.211 -4.59,-2.379 -10.78,-3.578 -18.57,-3.578 -7.59,0 -13.29,0.82 -17.08,2.468 -3.81,1.661 -5.7,4.661 -5.7,9.043 0,2.969 0.89,5.27 2.71,6.868 1.79,1.621 4.47,2.441 8.01,2.441 1.4,0 2.76,-0.191 4.09,-0.582 1.65,-0.367 3.07,-0.57 4.27,-0.57 2.97,0 5.32,0.429 7.03,1.332 1.71,0.879 3.24,2.418 4.61,4.609 1.36,2.172 2.93,5.391 4.7,9.629" /><path
         id="path36"
         style="fill:#272935;fill-opacity:1;fill-rule:nonzero;stroke:none"
         d="m 4167.03,272.301 h 6.18 v 7.781 c 0,8.137 1,14.57 3.07,19.367 2.04,4.793 5.56,8.262 10.47,10.449 4.9,2.172 11.63,3.262 20.16,3.262 15.2,0 22.73,-3.672 22.73,-11.129 0,-2.379 -0.79,-4.449 -2.4,-6.152 -1.55,-1.699 -3.43,-2.559 -5.58,-2.559 -1,0 -2.78,0.18 -5.27,0.59 -2.38,0.332 -4.52,0.559 -6.23,0.559 -4.68,0 -7.67,-1.399 -9.06,-4.16 -1.27,-2.75 -1.95,-6.68 -1.95,-11.829 v -6.179 h 6.33 c 9.91,0 14.81,-2.961 14.81,-8.961 0,-4.18 -1.27,-6.891 -3.92,-8.051 -2.62,-1.129 -6.24,-1.699 -10.89,-1.699 h -6.33 v -68.711 c 0,-5.109 -1.2,-9 -3.69,-11.68 -2.41,-2.73 -5.54,-4.058 -9.42,-4.058 -3.68,0 -6.71,1.328 -9.18,4.058 -2.45,2.68 -3.65,6.571 -3.65,11.68 v 68.711 h -7.14 c -3.88,0 -6.82,0.84 -8.93,2.621 -2.09,1.699 -3.15,3.988 -3.15,6.781 0,6.227 4.35,9.309 13.04,9.309" /><path
         id="path38"
         style="fill:#272935;fill-opacity:1;fill-rule:nonzero;stroke:none"
         d="m 4251.92,206.559 v -21.68 c 0,-5.227 -1.32,-9.199 -3.74,-11.789 -2.47,-2.66 -5.58,-3.949 -9.37,-3.949 -3.82,0 -6.88,1.308 -9.27,4 -2.36,2.64 -3.6,6.57 -3.6,11.738 v 72.23 c 0,11.661 4.2,17.481 12.6,17.481 4.34,0 7.44,-1.352 9.34,-4.078 1.9,-2.742 2.95,-6.742 3.17,-12.071 3.08,5.329 6.24,9.329 9.49,12.071 3.32,2.726 7.62,4.078 13.09,4.078 5.49,0 10.73,-1.352 15.85,-4.078 5.16,-2.742 7.72,-6.371 7.72,-10.84 0,-3.152 -1.11,-5.801 -3.26,-7.813 -2.2,-2.089 -4.55,-3.129 -7.06,-3.129 -1,0 -3.32,0.629 -6.93,1.801 -3.65,1.129 -6.88,1.739 -9.63,1.739 -3.8,0 -6.92,-1.04 -9.31,-2.989 -2.43,-2.051 -4.31,-4.961 -5.65,-8.871 -1.29,-3.949 -2.19,-8.648 -2.72,-14.039 -0.49,-5.41 -0.72,-12.031 -0.72,-19.812" /><path
         id="path40"
         style="fill:#272935;fill-opacity:1;fill-rule:nonzero;stroke:none"
         d="m 4320.39,230.23 h 47.01 c -0.62,8.852 -2.98,15.489 -7.14,19.872 -4.18,4.41 -9.59,6.597 -16.4,6.597 -6.46,0 -11.77,-2.211 -15.92,-6.699 -4.14,-4.449 -6.68,-11.039 -7.55,-19.77 m 50.74,-14.738 h -50.74 c 0.09,-5.883 1.24,-11.121 3.55,-15.594 2.35,-4.468 5.4,-7.867 9.24,-10.168 3.85,-2.269 8.04,-3.398 12.69,-3.398 3.1,0 5.93,0.328 8.5,1.109 2.53,0.7 5.04,1.86 7.45,3.418 2.42,1.52 4.6,3.18 6.64,5 2.02,1.743 4.67,4.161 7.9,7.192 1.35,1.129 3.24,1.738 5.68,1.738 2.69,0 4.82,-0.75 6.5,-2.23 1.66,-1.469 2.43,-3.5 2.43,-6.168 0,-2.352 -0.89,-5.082 -2.68,-8.192 -1.87,-3.179 -4.63,-6.168 -8.36,-9.058 -3.74,-2.852 -8.39,-5.27 -13.97,-7.153 -5.6,-1.886 -12.06,-2.847 -19.32,-2.847 -16.71,0 -29.64,4.73 -38.87,14.218 -9.23,9.512 -13.91,22.422 -13.91,38.672 0,7.68 1.17,14.789 3.47,21.348 2.25,6.582 5.58,12.172 9.99,16.871 4.36,4.711 9.7,8.289 16.13,10.789 6.37,2.5 13.46,3.75 21.28,3.75 10.1,0 18.81,-2.148 26.06,-6.469 7.24,-4.218 12.74,-9.769 16.29,-16.539 3.61,-6.801 5.42,-13.672 5.42,-20.742 0,-6.488 -1.88,-10.707 -5.62,-12.66 -3.73,-1.93 -8.97,-2.887 -15.75,-2.887" /><path
         id="path42"
         style="fill:#272935;fill-opacity:1;fill-rule:nonzero;stroke:none"
         d="m 4428.27,230.23 h 47.01 c -0.63,8.852 -3.03,15.489 -7.15,19.872 -4.2,4.41 -9.61,6.597 -16.42,6.597 -6.46,0 -11.76,-2.211 -15.93,-6.699 -4.13,-4.449 -6.67,-11.039 -7.51,-19.77 M 4479,215.492 h -50.73 c 0.06,-5.883 1.25,-11.121 3.55,-15.594 2.31,-4.468 5.39,-7.867 9.21,-10.168 3.82,-2.269 8.05,-3.398 12.71,-3.398 3.08,0 5.93,0.328 8.45,1.109 2.59,0.7 5.06,1.86 7.5,3.418 2.42,1.52 4.6,3.18 6.64,5 1.99,1.743 4.64,4.161 7.88,7.192 1.35,1.129 3.26,1.738 5.68,1.738 2.69,0 4.84,-0.75 6.51,-2.23 1.65,-1.469 2.4,-3.5 2.4,-6.168 0,-2.352 -0.87,-5.082 -2.74,-8.192 -1.76,-3.179 -4.55,-6.168 -8.3,-9.058 -3.7,-2.852 -8.39,-5.27 -13.95,-7.153 -5.58,-1.886 -12.08,-2.847 -19.35,-2.847 -16.67,0 -29.59,4.73 -38.86,14.218 -9.24,9.512 -13.89,22.422 -13.89,38.672 0,7.68 1.16,14.789 3.48,21.348 2.26,6.582 5.58,12.172 9.96,16.871 4.35,4.711 9.72,8.289 16.14,10.789 6.38,2.5 13.5,3.75 21.29,3.75 10.09,0 18.78,-2.148 26.13,-6.469 7.2,-4.218 12.66,-9.769 16.21,-16.539 3.6,-6.801 5.45,-13.672 5.45,-20.742 0,-6.488 -1.91,-10.707 -5.61,-12.66 -3.75,-1.93 -9,-2.887 -15.76,-2.887" /><path
         id="path44"
         style="fill:#272935;fill-opacity:1;fill-rule:nonzero;stroke:none"
         d="m 4586.64,222.32 c 0,6.86 -1.06,12.739 -3.14,17.641 -2.09,4.918 -4.99,8.668 -8.67,11.269 -3.67,2.641 -7.82,3.969 -12.32,3.969 -7.14,0 -13.18,-2.84 -18.09,-8.437 -4.92,-5.672 -7.39,-13.953 -7.39,-24.922 0,-10.281 2.44,-18.34 7.35,-24.07 4.88,-5.739 10.86,-8.59 18.13,-8.59 4.29,0 8.3,1.269 11.97,3.73 3.71,2.52 6.65,6.27 8.84,11.27 2.21,5.019 3.32,11.07 3.32,18.14 M 4535.8,260 v -3.109 c 4.86,6.019 9.94,10.429 15.24,13.25 5.19,2.851 11.19,4.269 17.83,4.269 7.95,0 15.35,-2.09 22.07,-6.172 6.71,-4.136 11.98,-10.148 15.89,-18.058 3.89,-7.95 5.86,-17.309 5.86,-28.149 0,-7.949 -1.13,-15.312 -3.36,-22.011 -2.24,-6.68 -5.37,-12.27 -9.29,-16.801 -3.94,-4.489 -8.56,-8.008 -13.9,-10.449 -5.42,-2.418 -11.11,-3.629 -17.27,-3.629 -7.39,0 -13.65,1.48 -18.66,4.468 -5.02,2.911 -9.82,7.332 -14.41,13.051 v -38.93 c 0,-11.339 -4.16,-17.089 -12.44,-17.089 -4.9,0 -8.09,1.468 -9.72,4.398 -1.51,2.992 -2.33,7.231 -2.33,12.91 v 111.93 c 0,4.941 1.06,8.601 3.2,11.082 2.15,2.379 5.12,3.629 8.85,3.629 3.69,0 6.66,-1.25 8.95,-3.731 2.36,-2.539 3.49,-6.109 3.49,-10.859" /><path
         id="path46"
         style="fill:#272935;fill-opacity:1;fill-rule:nonzero;stroke:none"
         d="m 4651.64,259.879 v -75.02 c 0,-5.148 -1.24,-9.078 -3.7,-11.718 -2.5,-2.692 -5.61,-4 -9.41,-4 -3.81,0 -6.85,1.328 -9.28,4.058 -2.34,2.762 -3.56,6.641 -3.56,11.66 v 74.282 c 0,5.101 1.22,8.949 3.56,11.539 2.43,2.64 5.47,3.91 9.28,3.91 3.8,0 6.91,-1.27 9.41,-3.91 2.46,-2.59 3.7,-6.231 3.7,-10.801 m -12.84,26.781 c -3.62,0 -6.69,1.149 -9.23,3.36 -2.6,2.23 -3.88,5.312 -3.88,9.351 0,3.699 1.31,6.699 3.97,9.109 2.62,2.34 5.66,3.551 9.14,3.551 3.4,0 6.36,-1.051 8.93,-3.179 2.6,-2.192 3.91,-5.352 3.91,-9.481 0,-3.98 -1.27,-7.101 -3.78,-9.351 -2.54,-2.211 -5.55,-3.36 -9.06,-3.36" /><path
         id="path48"
         style="fill:#272935;fill-opacity:1;fill-rule:nonzero;stroke:none"
         d="m 4735.23,180.98 -22.84,37.649 -14.08,-13.277 v -20.661 c 0,-4.98 -1.33,-8.812 -3.96,-11.492 -2.57,-2.73 -5.67,-4.058 -9.07,-4.058 -3.98,0 -7.15,1.308 -9.4,4 -2.27,2.64 -3.44,6.57 -3.44,11.738 v 110.633 c 0,5.738 1.14,10.109 3.31,13.136 2.23,3.051 5.45,4.512 9.53,4.512 4,0 7.13,-1.359 9.5,-4.101 2.34,-2.707 3.53,-6.739 3.53,-12.028 v -62.929 l 29.16,30.628 c 3.62,3.77 6.33,6.399 8.27,7.79 1.9,1.39 4.19,2.07 6.9,2.07 3.26,0 5.93,-1.039 8.15,-3.09 2.11,-2.051 3.2,-4.641 3.2,-7.73 0,-3.79 -3.53,-8.891 -10.54,-15.219 l -13.77,-12.61 26.59,-41.839 c 1.93,-3.122 3.39,-5.43 4.24,-7.051 0.84,-1.602 1.3,-3.199 1.3,-4.629 0,-4.121 -1.15,-7.34 -3.41,-9.742 -2.25,-2.371 -5.24,-3.539 -8.86,-3.539 -3.16,0 -5.63,0.8 -7.33,2.558 -1.7,1.723 -4.08,4.821 -6.98,9.281" /><path
         id="path50"
         style="fill:#272935;fill-opacity:1;fill-rule:nonzero;stroke:none"
         d="m 4791.59,169.141 c -3.91,0 -7.27,1.25 -10.13,3.808 -2.85,2.481 -4.29,6.051 -4.29,10.641 0,3.851 1.37,7.191 4.1,9.949 2.74,2.793 6.07,4.191 10.08,4.191 3.97,0 7.35,-1.398 10.22,-4.121 2.8,-2.75 4.22,-6.129 4.22,-10.019 0,-4.531 -1.42,-8.078 -4.22,-10.598 -2.87,-2.601 -6.19,-3.851 -9.98,-3.851" /><path
         id="path52"
         style="fill:#272935;fill-opacity:1;fill-rule:nonzero;stroke:none"
         d="m 4920.58,201.23 c 0,-3.199 -0.97,-6.679 -2.91,-10.328 -1.92,-3.711 -4.89,-7.191 -8.86,-10.511 -3.95,-3.321 -8.92,-6.02 -14.95,-8.032 -6.01,-2.027 -12.81,-3.058 -20.31,-3.058 -16.06,0 -28.58,4.679 -37.57,14 -8.96,9.359 -13.46,21.898 -13.46,37.601 0,10.68 2.04,20.059 6.19,28.239 4.07,8.148 10.04,14.468 17.81,18.949 7.8,4.469 17.16,6.699 27.94,6.699 6.74,0 12.88,-0.98 18.53,-2.949 5.6,-1.961 10.32,-4.52 14.25,-7.598 3.86,-3.152 6.85,-6.433 8.89,-9.922 2.07,-3.519 3.08,-6.8 3.08,-9.871 0,-3.078 -1.13,-5.719 -3.43,-7.867 -2.35,-2.152 -5.15,-3.242 -8.39,-3.242 -2.18,0 -3.97,0.57 -5.41,1.66 -1.43,1.109 -3.04,2.891 -4.78,5.41 -3.18,4.789 -6.47,8.422 -9.96,10.801 -3.43,2.418 -7.81,3.609 -13.14,3.609 -7.62,0 -13.84,-2.961 -18.53,-8.961 -4.68,-5.961 -7.03,-14.199 -7.03,-24.55 0,-4.879 0.62,-9.399 1.82,-13.477 1.17,-4.062 2.91,-7.562 5.21,-10.434 2.3,-2.867 5.04,-5.058 8.26,-6.539 3.24,-1.539 6.8,-2.269 10.63,-2.269 5.22,0 9.67,1.211 13.37,3.621 3.76,2.398 7.02,6.07 9.87,11.008 1.58,2.91 3.27,5.183 5.08,6.84 1.83,1.64 4.1,2.5 6.76,2.5 3.17,0 5.8,-1.227 7.86,-3.629 2.11,-2.41 3.18,-4.981 3.18,-7.7" /><path
         id="path54"
         style="fill:#272935;fill-opacity:1;fill-rule:nonzero;stroke:none"
         d="m 5006.45,221.84 c 0,10.582 -2.35,18.801 -6.99,24.68 -4.63,5.96 -10.9,8.89 -18.74,8.89 -5.08,0 -9.55,-1.328 -13.43,-3.949 -3.86,-2.609 -6.8,-6.481 -8.89,-11.641 -2.09,-5.129 -3.16,-11.129 -3.16,-17.98 0,-6.781 1.03,-12.68 3.1,-17.738 2.08,-5.102 5.02,-8.961 8.86,-11.661 3.85,-2.652 8.35,-4.039 13.52,-4.039 7.84,0 14.11,2.969 18.74,8.918 4.64,5.899 6.99,14.11 6.99,24.52 m 26.03,0 c 0,-7.699 -1.22,-14.852 -3.55,-21.391 -2.47,-6.519 -5.92,-12.129 -10.5,-16.777 -4.55,-4.692 -10.02,-8.281 -16.32,-10.801 -6.4,-2.48 -13.5,-3.75 -21.39,-3.75 -7.85,0 -14.93,1.27 -21.21,3.828 -6.23,2.481 -11.71,6.133 -16.26,10.821 -4.61,4.769 -8.08,10.332 -10.52,16.761 -2.29,6.438 -3.5,13.551 -3.5,21.309 0,7.871 1.24,15.051 3.58,21.582 2.42,6.539 5.89,12.129 10.39,16.738 4.51,4.61 9.93,8.16 16.31,10.699 6.44,2.481 13.5,3.731 21.21,3.731 7.84,0 14.98,-1.25 21.39,-3.809 6.38,-2.519 11.83,-6.152 16.43,-10.801 4.59,-4.75 8.03,-10.289 10.41,-16.718 2.33,-6.5 3.53,-13.59 3.53,-21.422" /><path
         id="path56"
         style="fill:#272935;fill-opacity:1;fill-rule:nonzero;stroke:none"
         d="m 5131.4,219.941 v -34.472 c 0,-5.469 -1.2,-9.508 -3.69,-12.27 -2.5,-2.73 -5.72,-4.078 -9.78,-4.078 -3.93,0 -7.14,1.348 -9.51,4.078 -2.47,2.762 -3.72,6.801 -3.72,12.27 v 41.312 c 0,6.539 -0.21,11.621 -0.64,15.25 -0.46,3.539 -1.68,6.539 -3.62,8.828 -1.96,2.34 -5.09,3.512 -9.31,3.512 -8.5,0 -14.07,-2.91 -16.76,-8.801 -2.68,-5.769 -4.07,-14.14 -4.07,-25.078 v -35.023 c 0,-5.367 -1.22,-9.449 -3.61,-12.231 -2.49,-2.726 -5.67,-4.117 -9.65,-4.117 -3.95,0 -7.17,1.391 -9.67,4.117 -2.52,2.782 -3.76,6.864 -3.76,12.231 v 74.203 c 0,4.879 1.12,8.59 3.35,11.109 2.3,2.559 5.27,3.809 8.9,3.809 3.56,0 6.51,-1.231 8.92,-3.551 2.36,-2.391 3.54,-5.668 3.54,-9.848 v -2.441 c 4.53,5.352 9.35,9.32 14.44,11.801 5.17,2.59 10.82,3.859 17.13,3.859 6.52,0 12.11,-1.301 16.78,-3.898 4.7,-2.602 8.54,-6.551 11.6,-11.762 4.4,5.27 9.09,9.219 14.1,11.801 5,2.57 10.53,3.859 16.62,3.859 7.06,0 13.22,-1.418 18.34,-4.199 5.1,-2.77 8.93,-6.789 11.48,-11.949 2.21,-4.723 3.3,-12.09 3.3,-22.172 v -50.621 c 0,-5.469 -1.22,-9.508 -3.67,-12.27 -2.46,-2.73 -5.75,-4.078 -9.8,-4.078 -3.94,0 -7.14,1.391 -9.65,4.117 -2.5,2.782 -3.76,6.864 -3.76,12.231 v 43.613 c 0,5.59 -0.23,10.039 -0.69,13.379 -0.47,3.379 -1.77,6.211 -3.83,8.48 -2.12,2.258 -5.3,3.43 -9.53,3.43 -3.42,0 -6.66,-1.07 -9.73,-3.082 -3.07,-1.969 -5.47,-4.769 -7.21,-8.129 -1.86,-4.371 -2.84,-12.121 -2.84,-23.219" /><path
         id="path58"
         style="fill:#272935;fill-opacity:1;fill-rule:nonzero;stroke:none"
         d="m 3924.35,228.121 c -0.02,0.039 -0.02,0.098 -0.02,0.18 0,-0.082 0,-0.141 0.02,-0.18" /><path
         id="path60"
         style="fill:#272935;fill-opacity:1;fill-rule:nonzero;stroke:none"
         d="m 3925.66,219.82 c 0.02,0 0.02,0 0.03,0 -0.5,2.371 -0.89,4.711 -1.19,7.039 0.3,-2.347 0.69,-4.687 1.16,-7.039" /><path
         id="path62"
         style="fill:#272935;fill-opacity:1;fill-rule:nonzero;stroke:none"
         d="m 3934.24,195.762 c -0.06,0.097 -0.1,0.218 -0.17,0.328 0.07,-0.11 0.11,-0.231 0.17,-0.328" /><path
         id="path64"
         style="fill:#272935;fill-opacity:1;fill-rule:nonzero;stroke:none"
         d="m 3933.42,197.359 c -0.22,0.45 -0.44,0.903 -0.65,1.352 0.21,-0.473 0.43,-0.902 0.65,-1.352" /><path
         id="path66"
         style="fill:#272935;fill-opacity:1;fill-rule:nonzero;stroke:none"
         d="m 3928.07,210.57 c 1.27,-4.011 2.8,-7.89 4.57,-11.59 -1.8,3.77 -3.3,7.661 -4.53,11.59 -0.01,0 -0.03,0 -0.04,0" /><path
         id="path68"
         style="fill:#272935;fill-opacity:1;fill-rule:nonzero;stroke:none"
         d="m 4024.73,327.48 c 5.01,0 8.71,-0.39 12.95,-1.109 l 1.2,7.629 c 0,0 -11.71,3.602 -27.1,2.352 l -1.21,4.14 c 4.78,1.008 8.38,5.27 8.38,10.348 0,5.82 -4.75,10.531 -10.58,10.531 -5.83,0 -10.56,-4.711 -10.56,-10.531 0,-5.078 3.59,-9.34 8.36,-10.348 l 1.34,-4.633 c -16.34,-2.25 -29.35,-8.609 -29.35,-8.609 l 2.3,-7.051 c 9.89,3.281 18.47,5.293 26.24,6.133 7.62,0.797 13.36,1.148 18.03,1.148" /><path
         id="path70"
         style="fill:#272935;fill-opacity:1;fill-rule:nonzero;stroke:none"
         d="m 3934.05,288.91 0.06,0.07 c 0.38,0.489 0.75,0.961 1.13,1.43 l -3.13,2.25 -4.88,3.57 c -0.27,-0.39 -7.95,-7.441 -14.01,-20.492 -0.26,0.41 -0.56,0.821 -0.9,1.192 -1.82,2 -4.36,3.011 -7.58,2.949 -0.04,0 -0.1,0 -0.15,0 -2,0 -3.37,0.672 -4.27,1.473 0.9,1.128 1.43,2.558 1.43,4.14 0,3.668 -3,6.68 -6.69,6.68 -3.69,0 -6.69,-3.012 -6.69,-6.68 0,-3.711 3,-6.703 6.69,-6.703 0.58,0 1.13,0.102 1.67,0.211 1.64,-1.828 4.25,-3.41 8.07,-3.34 1.97,0.02 3.41,-0.48 4.38,-1.558 1.11,-1.211 1.48,-2.954 1.6,-4.282 -0.01,-0.019 -0.01,-0.031 -0.03,-0.031 -4.36,-11.898 -3.11,-26.699 -3.11,-26.699 l 10.57,-0.43 c 0.21,5.391 0.98,14.82 3.71,22.301 5.27,14.488 11.86,23.559 12.13,23.949" /><path
         id="path72"
         style="fill:#272935;fill-opacity:1;fill-rule:nonzero;stroke:none"
         d="m 4116.72,318.648 c -3.68,0 -6.69,-2.988 -6.69,-6.699 0,-0.558 0.09,-1.109 0.23,-1.64 -1.83,-1.661 -3.42,-4.27 -3.37,-8.098 0.03,-1.981 -0.47,-3.402 -1.54,-4.379 -0.85,-0.742 -1.91,-1.152 -2.96,-1.402 -7.87,11.031 -17.56,17.75 -17.56,17.75 l -7.58,-8.129 c 5.73,-5.211 11.59,-11.75 17.28,-19.903 3.94,-5.636 7.99,-12.91 11.36,-20.148 l 10.24,4.859 c 0,0 -4.67,11.563 -11.26,21.911 1.15,0.41 2.3,1.039 3.31,1.941 2.01,1.789 2.99,4.348 2.93,7.578 -0.02,2.07 0.67,3.473 1.49,4.41 1.14,-0.879 2.57,-1.429 4.12,-1.429 3.71,0 6.7,2.992 6.7,6.679 0,3.711 -2.99,6.699 -6.7,6.699" /><path
         id="path74"
         style="fill:#272935;fill-opacity:1;fill-rule:nonzero;stroke:none"
         d="m 4090.15,226.621 c -14.1,-6.851 -37.29,-15.941 -67.82,-20.191 -11.98,-1.66 -23.59,-2.27 -34.28,-2.27 -13.9,0 -26.19,1.039 -35.62,2.231 -10.76,1.339 -19.18,3 -24.32,4.179 1.23,-3.929 2.73,-7.82 4.53,-11.59 0.04,-0.089 0.08,-0.21 0.13,-0.269 0.21,-0.449 0.43,-0.902 0.65,-1.352 0.22,-0.429 0.43,-0.859 0.65,-1.269 0.07,-0.11 0.11,-0.231 0.17,-0.328 3.03,-5.703 6.67,-10.942 10.81,-15.492 14.4,-15.739 29.07,-18.239 29.21,-18.258 l 0.23,-0.024 0.21,-0.078 c 0.13,-0.051 13.14,-4.25 32.92,-4.25 19.45,0 38.54,3.922 56.74,11.68 13.47,6.89 26.22,17.359 32.53,26.699 4.89,7.223 8.41,14.922 10.5,22.922 1.12,4.258 1.99,11.078 1.48,18.269 -3.97,-2.679 -10.24,-6.468 -18.72,-10.609" /><path
         id="path76"
         style="fill:#272935;fill-opacity:1;fill-rule:nonzero;stroke:none"
         d="m 3978.85,292.93 c 15.57,0 28.17,-12.621 28.17,-28.18 0,-15.551 -12.6,-28.148 -28.17,-28.148 -15.54,0 -28.16,12.597 -28.16,28.148 0,15.559 12.62,28.18 28.16,28.18 z m 82.42,-0.7 c 9.61,0 17.43,-7.82 17.43,-17.429 0,-9.621 -7.82,-17.442 -17.43,-17.442 -9.62,0 -17.42,7.821 -17.42,17.442 0,9.609 7.8,17.429 17.42,17.429 z m -122.7,-6.66 c -0.41,-0.609 -6.52,-9.261 -11.35,-22.539 -3.62,-9.941 -3.46,-24.441 -3.46,-24.59 v -0.039 c 0,-3.402 0.2,-6.761 0.57,-10.101 0,-0.082 0,-0.141 0.02,-0.18 0.04,-0.422 0.11,-0.832 0.15,-1.262 0.3,-2.328 0.69,-4.668 1.19,-7.039 7,-1.769 48.78,-11.519 95.48,-5.019 29.27,4.09 51.5,12.738 64.99,19.281 11.21,5.43 18.42,10.348 21.2,12.379 -2.77,10.281 -10.42,26.41 -17.43,36.469 -20.05,28.652 -41.67,36 -52.77,37.832 -4.24,0.687 -7.63,1.097 -12.43,1.097 -4.48,0 -10.02,-0.379 -17.44,-1.16 -7.43,-0.758 -15.71,-2.707 -25.32,-5.949 -13.47,-4.52 -25.67,-11.59 -35.27,-20.469 l -0.32,-0.32 c -1.42,-1.301 -4.39,-4.063 -7.81,-8.391" /><path
         id="path78"
         style="fill:#272935;fill-opacity:1;fill-rule:nonzero;stroke:none"
         d="m 1690,6218.4 c 0,0.1 0,0.19 0,0.29 0,0.12 0,0.25 0,0.37 L 1684.31,7240 h -56.01 l 4.27,-898.36 c -41.06,39.09 -101.32,63.81 -168.55,63.81 -123.72,0 -224.02,-83.61 -224.02,-186.76 0,-103.14 100.3,-184.75 224.02,-184.75 122.65,0 222.21,76.06 223.94,186.06 h 2.04 v -1.6" /><path
         id="path80"
         style="fill:#272935;fill-opacity:1;fill-rule:nonzero;stroke:none"
         d="m 6545.99,6091.94 c -90.44,0 -164.03,56.86 -164.03,126.75 0,69.9 73.59,126.76 164.03,126.76 90.44,0 164.01,-56.86 164.01,-126.76 0,-69.89 -73.57,-126.75 -164.01,-126.75 z M 6770,6218.4 c 0,0.1 0,0.19 0,0.29 0,0.12 -0.01,0.25 -0.01,0.37 L 6766.26,7240 h -56 l 4.27,-898.35 c -41.06,39.09 -101.32,63.8 -168.54,63.8 -123.73,0 -224.03,-83.61 -224.03,-186.76 0,-103.14 100.3,-184.75 224.03,-184.75 122.63,0 222.19,76.06 223.93,186.06 h 0.08 v -1.6" /><path
         id="path82"
         style="fill:#272935;fill-opacity:1;fill-rule:nonzero;stroke:none"
         d="m 1484.85,1108.97 c -61.48,-26.35 -144.47,-30.8 -184.6,-31.27 3.56,134.15 32.23,212.64 91.6,252.63 24.65,16.61 55.2,25.75 86,25.75 52.04,0 95.41,-24.35 110.48,-62.05 26.5,-66.23 -19.92,-149.24 -103.48,-185.06 z m 159.2,207.39 c -24.25,60.6 -89.48,99.8 -166.2,99.8 -43.24,0 -84.57,-12.37 -119.52,-35.92 -25.98,-17.5 -46.32,-39.48 -62.27,-64.41 l 3.68,774.17 h -56 L 1240,1066.01 h 0.01 c -0.08,-5.93 -0.14,-11.85 -0.14,-17.66 l 0.03,-28.21 28.47,-0.86 c 0,0 8.9,0.72 23.78,0.72 0.01,0 0.01,0 0.01,0 49.27,0 142.88,3.54 216.33,35.02 113.23,48.53 174.04,165.13 135.56,261.34" /><path
         id="path84"
         style="fill:#272935;fill-opacity:1;fill-rule:nonzero;stroke:none"
         d="m 6545.99,5379.82 c -123.73,0 -224.03,-83.61 -224.03,-186.76 0,-103.14 100.3,-186.75 224.03,-186.75 123.72,0 224.01,83.61 224.01,186.75 0,103.15 -100.29,186.76 -224.01,186.76 z m 0,-60 c 90.44,0 164.01,-56.86 164.01,-126.76 0,-69.89 -73.57,-126.75 -164.01,-126.75 -90.44,0 -164.03,56.86 -164.03,126.75 0,69.9 73.59,126.76 164.03,126.76" /><path
         id="path86"
         style="fill:#272935;fill-opacity:1;fill-rule:nonzero;stroke:none"
         d="M 2990.78,6944.99 C 2814.3,7062.98 2790,7236.87 2790,7238.01 v 1.99 h -53.06 l 4.27,-898.36 c -41.06,39.09 -101.33,63.81 -168.55,63.81 -123.73,0 -224.02,-83.61 -224.02,-186.76 0,-103.14 100.29,-184.75 224.02,-184.75 122.64,0 222.21,76.06 223.94,186.06 h 3.4 v -1.6 c 0,0.1 0,0.19 0,0.29 0,0.12 0,0.25 0,0.37 l -4.72,838.1 c 28.63,-45.38 78.63,-99.07 170.77,-168.01 182.43,-136.46 50.59,-278.34 50.59,-278.34 115.75,56 144.46,220.28 -25.86,334.18" /><path
         id="path88"
         style="fill:#272935;fill-opacity:1;fill-rule:nonzero;stroke:none"
         d="m 5590.59,6408.91 c -14.95,14.96 -32.54,29.46 -53.13,43.23 -151.28,101.15 -189.51,243.32 -197.44,282.59 l -0.27,74.56 c 28.79,-45.07 79.53,-98.36 170.7,-166.57 119.56,-89.43 104.62,-181.19 80.14,-233.81 z m -80.14,480.24 c 119.56,-89.44 104.62,-181.2 80.14,-233.82 -14.95,14.95 -32.54,29.46 -53.13,43.23 -158.31,105.86 -192.83,256.63 -198.37,287.38 l -0.25,71.23 c 28.62,-45.39 79.45,-99.08 171.61,-168.02 z m 94.45,-249.26 c 77.4,71.45 80.26,206.95 -66.52,305.1 C 5361.91,7062.98 5340,7236.87 5340,7238.01 v 1.99 h -57.83 l 4.27,-898.35 c -41.07,39.09 -101.33,63.8 -168.55,63.8 -123.73,0 -224.02,-83.61 -224.02,-186.76 0,-103.14 100.29,-184.75 224.02,-184.75 122.63,0 222.21,76.06 223.95,186.06 H 5340 v -1.6 c 0,0.1 0,0.19 0,0.29 0,0.12 0,0.25 0,0.37 l -0.31,342.36 c 28.96,-44.77 80.1,-97.65 170.28,-165.12 182.42,-136.46 51.98,-278.34 51.98,-278.34 97.01,46.93 133.71,169.88 42.84,275.51 62.84,58.01 76,158.22 0.11,246.42" /><path
         id="path90"
         style="fill:#272935;fill-opacity:1;fill-rule:nonzero;stroke:none"
         d="m 4266.98,6698.56 c -158.33,105.87 -192.84,256.67 -198.38,287.39 l -0.26,71.21 c 28.63,-45.38 79.46,-99.07 171.62,-168.01 119.55,-89.43 104.62,-181.19 80.14,-233.81 -14.94,14.95 -32.54,29.46 -53.12,43.22 z m 1.16,246.43 C 4091.68,7062.98 4070,7236.87 4070,7238.01 v 1.99 h -58.33 l 4.28,-898.36 c -41.07,39.09 -101.33,63.81 -168.55,63.81 -123.74,0 -224.03,-83.61 -224.03,-186.76 0,-103.14 100.29,-184.75 224.03,-184.75 122.63,0 222.2,76.06 223.94,186.06 H 4070 v -1.6 c 0,0.1 0,0.19 0,0.29 0,0.12 0,0.25 0,0.37 l -1.46,590.23 c 28.8,-45.08 79.9,-98.36 171.07,-166.57 182.42,-136.46 51.91,-278.34 51.91,-278.34 97,46.94 134.27,169.88 43.38,275.51 77.39,71.46 80.02,206.96 -66.76,305.1" /><path
         id="path92"
         style="fill:#272935;fill-opacity:1;fill-rule:nonzero;stroke:none"
         d="m 3997.36,5061.94 c -90.44,0 -164.02,56.86 -164.02,126.75 0,69.9 73.58,126.76 164.02,126.76 90.44,0 164.02,-56.86 164.02,-126.76 0,-69.89 -73.58,-126.75 -164.02,-126.75 z M 4210,5247.45 c -29.54,74.35 -113.54,128 -212.64,128 -93.7,0 -173.93,-47.98 -207.36,-116.06 V 5420 h -30 v -450 h 30 v 148 c 33.43,-68.08 113.66,-116.06 207.36,-116.06 99.1,0 183.1,53.66 212.64,128 V 4970 h 30 v 450 h -30 v -172.55" /><path
         id="path94"
         style="fill:#272935;fill-opacity:1;fill-rule:nonzero;stroke:none"
         d="m 4270,5420 v -450 h 30 v 450 h -30" /><path
         id="path96"
         style="fill:#272935;fill-opacity:1;fill-rule:nonzero;stroke:none"
         d="m 3700,4970 h 30 v 450 h -30 v -450" /><path
         id="path98"
         style="fill:#272935;fill-opacity:1;fill-rule:nonzero;stroke:none"
         d="m 1610,5120 h -160 v 150 h 160 z m 210,150 v 60 h -150 v 180 h -60 v -180 h -160 v 130 h -60 v -130 h -150 v -60 h 150 v -150 h -150 v -60 h 150 v -180 h 60 v 180 h 160 v -130 h 60 v 130 h 150 v 60 h -150 v 150 h 150" /><path
         id="path100"
         style="fill:#272935;fill-opacity:1;fill-rule:nonzero;stroke:none"
         d="m 2878.92,5532.81 c -35.42,43.72 -81.54,76.18 -128.6,95.49 -5.88,2.47 -11.73,4.84 -17.68,6.76 l -8.83,3.05 -5.16,1.7 -3.97,1.13 -8.11,2.27 -9.68,2.38 c -6.45,1.55 -12.27,2.48 -18.39,3.49 -24.28,3.57 -48.19,4.05 -70.72,1.56 -45.21,-4.78 -83.98,-20.3 -114.51,-38.1 -30.62,-18.12 -52.4,-40.11 -67.21,-59.87 -14.94,-19.81 -22.97,-37.65 -27.74,-49.91 -2.36,-6.17 -3.86,-11.02 -4.7,-14.39 -0.3,-1.04 -0.52,-1.87 -0.71,-2.6 -6.62,-14.32 -10.52,-30.19 -10.9,-46.98 -1.48,-65.43 50.35,-119.68 115.78,-121.16 65.43,-1.48 119.67,50.36 121.17,115.79 1.4,62.09 -45.25,114.03 -105.93,120.44 3,1.46 5.89,2.94 9,4.37 25.87,12.23 56.9,21.31 90.6,21.87 33.67,0.77 69.45,-7.59 105.04,-25.1 35.56,-17.12 68.46,-42.56 94.9,-75.8 13.1,-16.68 24.82,-35.06 34.51,-55.02 9.45,-20.06 17.29,-41.43 23.03,-63.78 11.52,-44.73 14,-93.12 8.75,-140.92 -2.61,-24.06 -7.18,-47.59 -13.66,-70.68 -6.83,-23.75 -14.84,-45.39 -25.81,-66.5 -10.69,-20.99 -23.02,-41.08 -37.13,-59.71 -14.11,-18.64 -30.09,-35.62 -46.94,-51.24 -33.86,-31.05 -71.64,-56.53 -110.42,-75.29 -38.66,-19.07 -77.93,-32.21 -115.09,-41 -37.27,-8.37 -72.43,-12.66 -103.83,-13.79 -31.4,-1.04 -59.01,0.34 -81.69,2.83 -22.63,2.9 -40.37,5.75 -52.46,8.45 -12.07,2.74 -18.5,4.21 -18.5,4.21 0,0 6.1,-2.5 17.55,-7.19 11.47,-4.5 28.74,-10.86 51.25,-16.93 22.58,-5.74 50.53,-11.67 83.22,-14.46 32.64,-2.87 70.05,-3.45 110.57,1.48 40.38,5.19 84.33,14.2 128.42,31.69 22.16,8.4 44.38,18.73 66.27,31 11.08,5.92 21.75,12.85 32.65,19.71 10.54,7.38 21.22,14.85 31.41,23.22 41.2,32.75 78.72,74.35 106.98,123.31 14.18,24.18 25.65,51.24 34.62,77.4 9.15,26.91 16.12,54.86 20.62,82.93 9.06,56.38 7.3,114.86 -5.04,170.91 -12.14,56.04 -37.12,109.58 -72.93,152.98" /><path
         id="path102"
         style="fill:#272935;fill-opacity:1;fill-rule:nonzero;stroke:none"
         d="m 3083.57,5269.12 c 40.63,0 73.57,32.94 73.57,73.57 0,40.63 -32.94,73.57 -73.57,73.57 -40.63,0 -73.57,-32.94 -73.57,-73.57 0,-40.63 32.94,-73.57 73.57,-73.57" /><path
         id="path104"
         style="fill:#272935;fill-opacity:1;fill-rule:nonzero;stroke:none"
         d="m 3083.57,5176.26 c -40.63,0 -73.57,-32.94 -73.57,-73.57 0,-40.63 32.94,-73.57 73.57,-73.57 40.63,0 73.57,32.94 73.57,73.57 0,40.63 -32.94,73.57 -73.57,73.57" /><path
         id="path106"
         style="fill:#272935;fill-opacity:1;fill-rule:nonzero;stroke:none"
         d="m 2089.2,3110.14 c -1.15,-67.69 -33.47,-145.25 -96.18,-200.35 -33.14,-29.97 -74.25,-53.23 -119.37,-67.93 -17.86,132.16 -36.91,271.5 -53.96,417.12 -5.41,46.96 -10.7,94.57 -15.8,142.78 0.28,0.03 0.5,0.07 0.79,0.1 5.69,0.6 11.3,1.67 17.08,1.68 22.93,1.48 46.52,-2.21 70.45,-9.83 47.48,-16.1 96.11,-51.39 133.88,-101.11 18.74,-24.87 34.95,-53.04 46.3,-83.65 5.71,-15.32 10.25,-31.2 13.06,-47.49 1.73,-8.16 2.3,-16.4 3.2,-24.72 l 0.41,-6.25 0.22,-3.15 0.1,-1.57 c -0.1,-2.29 0.31,1.39 0.24,0.25 z m -339.32,-285.82 c -22.93,0.72 -46,3.32 -68.8,8.15 -22.9,4.33 -45.42,11.28 -67.46,19.72 l -16.52,6.46 -16.17,7.46 -8.06,3.8 -7.37,4.05 -16.52,9.11 c -18.74,11.99 -38.08,25.39 -54.57,41.95 -16.62,16.19 -31.83,33.92 -43.76,53.84 -12.15,19.68 -22.67,40.44 -29.92,62.59 -7.59,21.95 -12.61,44.88 -14.96,68.27 -1.76,11.54 -1.64,23.49 -2.4,35.16 0.39,11.9 -0.09,23.64 1.28,35.53 7.27,95.18 46.94,187.94 101.57,270.86 27.53,41.58 59.33,80.86 93.85,118.12 17.28,18.63 35.23,36.82 54.07,54.23 20.03,18.86 40.11,37.75 60.23,56.68 2.53,2.46 5.05,4.95 7.58,7.41 5.4,-55.8 11.27,-110.9 17.61,-165.35 -1.64,-0.7 -3.19,-1.4 -4.97,-2.14 l -13.13,-5.61 c -8.16,-4.18 -16.33,-7.95 -24.12,-12.44 -62.56,-35.78 -108.4,-87.76 -133.14,-140.52 -25.49,-52.72 -32.36,-104.83 -29.39,-148.35 3.28,-43.74 16.51,-79.45 33.09,-104.1 16.12,-25.12 34.96,-38.4 47.67,-45.35 3.23,-1.66 6.07,-3.12 8.51,-4.36 2.51,-0.9 4.61,-1.64 6.29,-2.22 3.38,-1.2 5.09,-1.8 5.09,-1.8 0,0 -1.24,1.33 -3.66,3.95 -2.5,2.55 -6.16,6.62 -9.96,11.93 -7.73,10.78 -17.36,28.1 -22.18,51.81 -5,23.54 -5.59,53.46 2.09,86.35 7.28,32.83 23.05,68.54 48.18,100.82 25.34,32.15 60.4,60.08 104.47,77.56 0.61,0.27 1.26,0.48 1.88,0.72 6.15,-45.74 12.65,-90.97 19.57,-135.52 14.53,-96.07 30.34,-189.2 45.81,-279.14 7.72,-44.97 15.31,-89.16 22.76,-132.52 0.41,-2.52 0.79,-4.97 1.19,-7.48 -30.86,-7.35 -63.13,-10.82 -95.73,-9.63 z m 3.14,1360.5 c 0.13,54 1.43,108.23 4.48,162.38 2.98,54.12 8.05,108.31 17.32,161 4.65,26.27 10.28,52.24 17.78,76.65 7.36,24 17.39,47.94 28.77,61.83 3.76,4.74 7.14,6.96 8.74,7.7 l 2.04,0.05 c -2.91,-0.08 -0.48,-0.16 -0.98,-0.23 0.65,-0.05 1.6,-0.36 2.69,-0.71 2.21,-0.8 5.1,-1.97 8.39,-4.14 13.6,-8.14 28.59,-26.57 39.79,-46.87 22.82,-41.62 35.12,-92.28 40.98,-143.02 5.67,-51.03 4.69,-103.52 0.71,-155.29 l -1.7,-18.82 -2.41,-21.02 c -1.72,-11.54 -3.59,-24.68 -5.9,-36.6 -4.96,-24.13 -11.27,-47.33 -19.98,-69.52 -16.87,-44.43 -43.13,-86.03 -74.14,-126.82 -18.86,-24.29 -39.22,-48.3 -60.35,-72.15 -3.61,74.53 -6.06,149.77 -6.23,225.58 z m 76.5,475.18 h 0.33 c -0.37,0 -0.65,0 -0.33,0 z m 1.53,-5.42 c 0.34,0.03 -0.28,-0.07 -0.87,-0.16 0.71,0.32 1.16,0.44 0.87,0.16 z m 367.27,-1409.9 c -5.36,23.62 -12.66,46.53 -22.3,68.02 -9.41,21.58 -20.18,42.33 -33.12,61.34 -50.4,76.66 -125.02,134.19 -209.49,157.62 -20.99,5.88 -42.46,9.65 -63.8,11.14 -21.38,0.97 -42.58,0.63 -63,-2.61 -5.53,-0.66 -10.96,-1.62 -16.33,-2.72 -6.27,65.97 -12.02,132.96 -17.15,200.79 60.92,61.53 119.74,126.86 171.95,203.75 33.86,50.66 65.4,107.25 84.23,169.94 9.73,31.09 16.06,63.03 20.21,94.52 1.94,15.94 3.11,30.87 4.25,47.38 l 0.89,21.15 0.45,23.43 c 0.51,60.88 -6.1,121.78 -20.91,181.62 -14.84,59.72 -36.91,118.53 -74.19,172.25 -9.41,13.42 -19.87,26.48 -32.23,38.77 -12.35,12.26 -26.37,24.16 -44.43,33.6 -8.89,4.74 -19.19,8.7 -30.58,11.16 -5.76,1.2 -11.71,2.03 -18.08,2.13 -2.25,0.03 -1.57,0.17 -6.22,0.05 l -2.62,-0.17 c -2.62,-0.18 -9.17,-0.95 -11.91,-1.72 -14.05,-3.06 -25.98,-9.71 -35.17,-16.93 -9.28,-7.27 -16.26,-15.16 -22.02,-22.91 -22.11,-31.22 -30.86,-61.04 -38.98,-90.31 -7.56,-29.27 -12.39,-58.05 -16.17,-86.64 -13.67,-114.23 -14.33,-225.47 -11.61,-335.25 2.16,-96.48 7.28,-191.48 14.03,-285.02 -33.19,-35.09 -67.39,-69.89 -101.11,-104.57 -19.5,-19.96 -38.87,-38.92 -58.54,-59.63 -20.56,-21.37 -40.4,-43.44 -59.02,-66.5 -37.36,-46.06 -70.11,-95.8 -97.38,-148.27 -27.58,-52.29 -49.02,-107.77 -62.78,-165.07 -14.02,-57.16 -20.33,-116.21 -16.52,-174.64 0.48,-14.56 2.75,-29.13 4.35,-43.54 2.74,-14.4 4.69,-28.74 8.68,-42.82 6.59,-28.29 17.06,-55.54 29.2,-81.58 24.25,-52.28 61.17,-97.46 104,-132.4 l 16.33,-12.75 17.09,-11.47 c 10.93,-7.81 24.1,-14.4 35.86,-21.19 l 17.04,-8.09 9.42,-4.43 9.16,-3.67 18.22,-7.42 18.53,-6.49 c 49.46,-16.8 100.88,-26.16 151.88,-27.69 35.39,-1.14 70.6,1.6 105.04,7.66 3.73,-23.85 7.34,-47.51 10.71,-70.84 6.24,-41.72 10.77,-82.74 14.35,-122.77 3.38,-40.04 5.68,-79.18 4.39,-117.02 -0.61,-18.91 -1.93,-37.46 -4.53,-55.44 -0.68,-4.32 -1.18,-9.4 -1.99,-13.03 l -2.82,-13.65 c -2.33,-8.27 -4.35,-16.23 -7.51,-24.36 -11.48,-32.35 -30.38,-60.55 -53.41,-82.25 -23.32,-21.42 -50.56,-36.31 -78.71,-43.55 l -10.6,-2.3 -2.63,-0.59 c -0.25,-0.05 -1.27,-0.28 -0.91,-0.18 l -1.47,-0.22 -5.85,-0.89 c -7.13,-0.93 -13.65,-1.41 -20.85,-1.58 -13.95,-0.22 -27.63,0.69 -40.57,3.52 -12.91,2.84 -25.12,6.97 -36.3,12.19 -11.07,5.58 -20.93,12.35 -29.55,19.74 -17.01,15.2 -28.25,33.43 -33.6,51.92 -2.94,9.15 -4.11,18.54 -4.55,27.58 -0.32,4.47 -0.23,9.01 0.02,13.41 l 0.61,6.58 c 0.25,-1.89 0.09,0.08 0.16,-0.07 l 0.05,1.05 0.1,2.11 0.2,4.17 c 1.2,6.28 2.63,15.23 5.18,21.99 2.42,7.09 5.34,13.57 8.52,19.34 4.17,7.36 8.85,13.12 13.58,17.72 17.83,-12.98 39.72,-20.72 63.46,-20.72 59.68,0 108.07,48.38 108.07,108.06 0,59.69 -47.39,110.05 -107.06,111.18 -42.54,0.8 -86.21,-11.28 -126.48,-53.34 -32.21,-33.64 -57.67,-81.61 -64.1,-132.52 -1.8,-12.74 -2.57,-25.86 -2.2,-39.25 0.52,-13.74 1.55,-26.14 4.38,-41.79 5.58,-25.1 16.53,-54.1 33.15,-79.43 16.78,-25.59 39.93,-48.43 67.57,-64.62 13.66,-8.29 28.41,-15.07 43.9,-19.93 15.35,-5.22 31.43,-8.77 47.89,-10.57 16.45,-1.82 33.28,-2.11 50.22,-0.51 8.23,0.76 17.24,2.13 25.66,3.89 l 5.78,1.29 3.44,0.83 3.15,0.89 12.65,3.59 c 16.64,5.74 33.1,12.95 48.57,22.45 15.36,9.66 29.8,21.14 42.9,34.31 25.63,26.82 46.05,59.87 57.79,96.84 3.15,9.04 5.41,18.99 7.66,28.66 l 2.35,13.75 c 1.02,5.5 1.26,9.78 1.94,14.76 2.31,19.26 3.24,38.74 3.41,58.38 1.01,78.62 -8.86,159.7 -19.25,243.89 -3.17,24.04 -6.42,48.44 -9.72,73.01 54.83,12.85 107.11,34.61 153.64,65.72 41.28,27.77 78.28,62.54 107.01,103.66 14.64,20.38 26.72,42.56 36.68,65.56 5.14,11.48 9.27,23.3 13.13,35.23 2.11,5.72 3.53,12.74 5.26,19.1 1.62,6.47 3.38,13.51 4.19,18.15 l 3.13,15.57 2.42,20.71 c 1.14,12.57 1.79,25.23 1.3,37.66 -0.34,25 -3.45,49.57 -9.06,73.14" /><path
         id="path108"
         style="fill:#272935;fill-opacity:1;fill-rule:nonzero;stroke:none"
         d="m 4754.69,5661.4 193.62,-298.27 c 0,0 -99.43,-47.09 -88.96,-156.99 10.47,-109.88 183.15,-313.96 183.15,-313.96 0,0 -151.76,83.73 -198.85,36.63 -47.1,-47.09 68.03,-204.07 68.03,-204.07 0,0 -109.9,115.11 -146.52,219.77 -36.62,104.65 5.24,146.53 73.26,115.13 l -151.76,235.47 c 0,0 57.56,-26.16 125.59,47.1 68.02,73.25 -57.56,319.19 -57.56,319.19" /><path
         id="path110"
         style="fill:none;stroke:#272935;stroke-width:40;stroke-linecap:butt;stroke-linejoin:miter;stroke-miterlimit:10;stroke-dasharray:none;stroke-opacity:1"
         d="M 1240,4220 H 6770" /><path
         id="path112"
         style="fill:none;stroke:#272935;stroke-width:40;stroke-linecap:butt;stroke-linejoin:miter;stroke-miterlimit:10;stroke-dasharray:none;stroke-opacity:1"
         d="M 1240,3860 H 6770" /><path
         id="path114"
         style="fill:none;stroke:#272935;stroke-width:40;stroke-linecap:butt;stroke-linejoin:miter;stroke-miterlimit:10;stroke-dasharray:none;stroke-opacity:1"
         d="M 1240,3500 H 6770" /><path
         id="path116"
         style="fill:none;stroke:#272935;stroke-width:40;stroke-linecap:butt;stroke-linejoin:miter;stroke-miterlimit:10;stroke-dasharray:none;stroke-opacity:1"
         d="M 1240,3140 H 6770" /><path
         id="path118"
         style="fill:none;stroke:#272935;stroke-width:40;stroke-linecap:butt;stroke-linejoin:miter;stroke-miterlimit:10;stroke-dasharray:none;stroke-opacity:1"
         d="M 1240,2780 H 6770" /><path
         id="path120"
         style="fill:#272935;fill-opacity:1;fill-rule:nonzero;stroke:none"
         d="m 5883.43,5448.92 c -0.75,-0.78 -60.65,-61.48 -158.63,-96.07 3.64,10.93 5.67,22.59 5.67,34.75 0,61.01 -49.45,110.47 -110.47,110.47 -61.02,0 -110.47,-49.46 -110.47,-110.47 0,-4.21 0.28,-8.35 0.74,-12.44 0.02,-16.74 3.72,-33.35 11.39,-48.34 10.05,-19.68 42.36,-64.28 125.09,-54 84.3,10.54 153.17,43.01 201.5,73.4 l -153.58,-495.95 57.32,-17.74 218.88,706.84 -87.44,-90.45" /><path
         id="path122"
         style="fill:#272935;fill-opacity:1;fill-rule:nonzero;stroke:none"
         d="m 6770,1258.53 c 0,0.09 0,0.19 0,0.29 0,0.13 -0.01,0.25 -0.01,0.38 l -3.73,1020.8 h -0.05 l -0.06,16.66 -786.7,-97.84 1.34,-122.26 3.74,-784.79 c -41.06,39.09 -101.33,63.81 -168.55,63.81 -123.73,0 -224.03,-83.62 -224.03,-186.76 0,-103.15 100.3,-184.8 224.03,-184.8 122.62,0 222.16,75.98 223.93,185.98 h 0.09 v -1.47 c 0,0.09 0,0.19 0,0.29 0,0.13 -0.01,0.25 -0.01,0.38 l -3.34,913.97 674.12,87.76 3.76,-789.16 c -41.06,39.09 -101.33,63.81 -168.55,63.81 -123.73,0 -224.03,-83.62 -224.03,-186.76 0,-103.15 100.3,-184.8 224.03,-184.8 122.62,0 222.16,75.98 223.93,185.98 h 0.09 v -1.47" /><path
         id="path124"
         style="fill:#272935;fill-opacity:1;fill-rule:nonzero;stroke:none"
         d="m 2935.98,2295.02 c -122.37,0 -221.75,-85.02 -223.92,-185.02 H 2710 v 0.26 c 0,-0.11 0,-0.24 0,-0.36 0,-0.15 0.99,-0.31 0.99,-0.47 l 3.83,-913.88 -673.88,-87.76 -3.63,789.15 c 41.06,-39.08 101.38,-63.8 168.61,-63.8 123.73,0 224.05,83.62 224.05,186.76 0,103.15 -100.28,185.12 -224.01,185.12 -122.37,0 -221.73,-85.02 -223.9,-185.02 H 1980 v 0.26 c 0,-0.11 0,-0.24 0,-0.36 0,-0.15 0.99,-0.31 0.99,-0.47 l 4.7,-1019.43 h 0.04 l 0.07,-17.941 786.7,97.841 -1.33,121.3 -3.74,785.74 c 41.06,-39.08 101.32,-63.8 168.55,-63.8 123.73,0 224.02,82.8 224.02,185.94 0,103.15 -100.29,185.94 -224.02,185.94" /><path
         id="path126"
         style="fill:#272935;fill-opacity:1;fill-rule:nonzero;stroke:none"
         d="m 3506.98,2028.81 -0.18,54.29 674.15,87.52 0.22,-49.74 z M 4240,1258.12 c 0,0.12 0,0.24 0,0.36 0,0.15 0,0.3 0,0.45 L 4236.48,2280 h -0.03 l -0.06,17.4 -786.74,-98.1 1.28,-121.07 3.47,-786.37 c -41.05,39.1 -101.3,63.76 -168.53,63.78 -123.73,0.05 -224.05,-83.56 -224.08,-186.7 -0.04,-103.15 100.22,-184.358 223.95,-184.409 122.27,-0.043 221.6,75.469 223.98,185.469 h 0.28 v -1.76 c 0,0.17 -0.08,0.33 -0.08,0.5 0,0.22 -0.06,0.42 -0.06,0.63 l -2.66,798.9 674.25,92.08 2.98,-678.89 c -41.04,39.1 -101.3,63.83 -168.52,63.86 -123.73,0.04 -224.05,-83.53 -224.09,-186.68 -0.04,-103.14 100.22,-189.21 223.95,-189.25 122.27,-0.05 221.6,80.61 223.98,180.61 h 0.25 v 8.12" /><path
         id="path128"
         style="fill:#272935;fill-opacity:1;fill-rule:nonzero;stroke:none"
         d="m 5275.11,1249.71 0.2,-54.29 -674.12,-87.75 -0.24,49.72 z m 220.87,1045.21 c -122.35,0 -221.7,-84.92 -223.92,-184.92 H 5270 v 0.15 c 0,-0.13 0,-0.25 0,-0.37 0,-0.16 0.99,-0.32 1,-0.47 l 3.4,-799.07 -673.98,-92.32 -3.12,678.9 c 41.08,-39.09 101.39,-63.8 168.62,-63.8 123.73,0 224.05,83.61 224.05,186.76 0,103.14 -100.28,185.14 -224.01,185.14 -122.35,0 -221.68,-84.92 -223.9,-184.92 H 4540 v 0.15 c 0,-0.13 0,-0.25 0,-0.37 0,-0.16 0.99,-0.32 1,-0.47 L 4545.69,1000 h 0.04 l 0.07,-18.07 786.7,97.85 -1.33,121.21 -3.74,785.83 c 41.07,-39.09 101.32,-63.8 168.55,-63.8 123.73,0 224.02,82.8 224.02,185.94 0,103.15 -100.29,185.96 -224.02,185.96" /></g></g></svg>