<?xml version="1.0" encoding="UTF-8" standalone="no"?>
<!-- Created with Inkscape (http://www.inkscape.org/) -->

<svg
   xmlns:dc="http://purl.org/dc/elements/1.1/"
   xmlns:cc="http://creativecommons.org/ns#"
   xmlns:rdf="http://www.w3.org/1999/02/22-rdf-syntax-ns#"
   xmlns:svg="http://www.w3.org/2000/svg"
   xmlns="http://www.w3.org/2000/svg"
   xmlns:sodipodi="http://sodipodi.sourceforge.net/DTD/sodipodi-0.dtd"
   xmlns:inkscape="http://www.inkscape.org/namespaces/inkscape"
   width="31.17881mm"
   height="29.499735mm"
   viewBox="0 0 31.17881 29.499735"
   version="1.1"
   id="svg159"
   inkscape:version="0.92.3 (2405546, 2018-03-11)"
   sodipodi:docname="bass.svg">
  <defs
     id="defs153" />
  <sodipodi:namedview
     id="base"
     pagecolor="#ffffff"
     bordercolor="#666666"
     borderopacity="1.0"
     inkscape:pageopacity="0.0"
     inkscape:pageshadow="2"
     inkscape:zoom="0.35"
     inkscape:cx="-98.224693"
     inkscape:cy="-111.69971"
     inkscape:document-units="mm"
     inkscape:current-layer="layer1"
     showgrid="false"
     fit-margin-top="0"
     fit-margin-left="0"
     fit-margin-right="0"
     fit-margin-bottom="0"
     inkscape:window-width="1920"
     inkscape:window-height="1017"
     inkscape:window-x="1912"
     inkscape:window-y="-8"
     inkscape:window-maximized="1" />
  <metadata
     id="metadata156">
    <rdf:RDF>
      <cc:Work
         rdf:about="">
        <dc:format>image/svg+xml</dc:format>
        <dc:type
           rdf:resource="http://purl.org/dc/dcmitype/StillImage" />
        <dc:title></dc:title>
      </cc:Work>
    </rdf:RDF>
  </metadata>
  <g
     inkscape:label="Layer 1"
     inkscape:groupmode="layer"
     id="layer1"
     transform="translate(-131.82195,-89.779717)">
    <path
       d="m 153.18578,93.991415 c -1.24954,-1.542344 -2.87655,-2.687461 -4.53672,-3.368675 -0.20744,-0.08714 -0.41381,-0.170744 -0.62371,-0.238477 l -0.31151,-0.107598 -0.18203,-0.05997 -0.14005,-0.03986 -0.28611,-0.08008 -0.34148,-0.08396 c -0.22755,-0.05468 -0.43286,-0.08749 -0.64876,-0.12312 -0.85655,-0.125941 -1.70004,-0.142875 -2.49485,-0.05503 -1.59491,0.168628 -2.96263,0.716139 -4.03966,1.344083 -1.0802,0.639233 -1.84855,1.414992 -2.37102,2.112081 -0.52705,0.698852 -0.81033,1.328208 -0.9786,1.760714 -0.0833,0.217663 -0.13617,0.388761 -0.16581,0.507647 -0.0106,0.03669 -0.0183,0.06597 -0.025,0.09172 -0.23354,0.505178 -0.37113,1.065036 -0.38453,1.65735 -0.0522,2.308225 1.77623,4.22204 4.08446,4.27426 2.30822,0.0522 4.22169,-1.776594 4.27461,-4.084818 0.0494,-2.190398 -1.59632,-4.022725 -3.73698,-4.248856 0.10584,-0.0515 0.20779,-0.103717 0.3175,-0.154164 0.91264,-0.431447 2.00731,-0.751769 3.19617,-0.771525 1.1878,-0.02716 2.45004,0.267759 3.70558,0.885472 1.25447,0.603956 2.41511,1.501423 3.34786,2.674056 0.46214,0.588433 0.87559,1.236839 1.21743,1.940983 0.33338,0.707672 0.60996,1.461558 0.81245,2.250022 0.4064,1.57797 0.49389,3.28506 0.30868,4.97134 -0.0921,0.84878 -0.25329,1.67887 -0.48189,2.49343 -0.24095,0.83785 -0.52353,1.60126 -0.91052,2.34597 -0.37712,0.74049 -0.8121,1.44922 -1.30987,2.10644 -0.49777,0.65758 -1.0615,1.2566 -1.65594,1.80763 -1.1945,1.09538 -2.5273,1.99426 -3.89537,2.65607 -1.36384,0.67274 -2.74919,1.13629 -4.06012,1.44639 -1.3148,0.29527 -2.55517,0.44662 -3.66289,0.48648 -1.10772,0.0367 -2.08174,-0.012 -2.88184,-0.0998 -0.79834,-0.10231 -1.42416,-0.20285 -1.85067,-0.2981 -0.4258,-0.0967 -0.65264,-0.14852 -0.65264,-0.14852 0,0 0.21519,0.0882 0.61912,0.25365 0.40464,0.15875 1.01389,0.38312 1.80799,0.59725 0.79657,0.2025 1.78259,0.4117 2.93582,0.51012 1.15146,0.10125 2.47121,0.12171 3.90066,-0.0522 1.42452,-0.18309 2.97498,-0.50094 4.53037,-1.11795 0.78176,-0.29634 1.56563,-0.66076 2.33786,-1.09361 0.39088,-0.20885 0.76729,-0.45333 1.15182,-0.69533 0.37183,-0.26035 0.7486,-0.52388 1.10808,-0.81915 1.45344,-1.15535 2.77706,-2.6229 3.77401,-4.3501 0.50024,-0.85302 0.90488,-1.80764 1.22132,-2.7305 0.32279,-0.94933 0.56868,-1.93534 0.72743,-2.92559 0.31961,-1.98896 0.25752,-4.052 -0.1778,-6.029324 -0.42828,-1.976967 -1.30951,-3.865739 -2.57281,-5.396795"
       style="fill:#272935;fill-opacity:1;fill-rule:nonzero;stroke:none;stroke-width:0.03527778"
       id="path100"
       inkscape:connector-curvature="0" />
    <path
       d="m 160.40538,103.29381 c 1.43333,0 2.59538,-1.16205 2.59538,-2.59538 0,-1.43334 -1.16205,-2.59539 -2.59538,-2.59539 -1.43334,0 -2.59539,1.16205 -2.59539,2.59539 0,1.43333 1.16205,2.59538 2.59539,2.59538"
       style="fill:#272935;fill-opacity:1;fill-rule:nonzero;stroke:none;stroke-width:0.03527778"
       id="path102"
       inkscape:connector-curvature="0" />
    <path
       d="m 160.40538,106.56971 c -1.43334,0 -2.59539,1.16205 -2.59539,2.59538 0,1.43334 1.16205,2.59539 2.59539,2.59539 1.43333,0 2.59538,-1.16205 2.59538,-2.59539 0,-1.43333 -1.16205,-2.59538 -2.59538,-2.59538"
       style="fill:#272935;fill-opacity:1;fill-rule:nonzero;stroke:none;stroke-width:0.03527778"
       id="path104"
       inkscape:connector-curvature="0" />
  </g>
</svg>
