<?xml version="1.0" encoding="UTF-8" standalone="no"?>
<!DOCTYPE svg PUBLIC "-//W3C//DTD SVG 1.1//EN" "http://www.w3.org/Graphics/SVG/1.1/DTD/svg11.dtd">
<svg version="1.1" xmlns="http://www.w3.org/2000/svg" xmlns:xlink="http://www.w3.org/1999/xlink" preserveAspectRatio="xMidYMid meet" viewBox="-1 -0.06846230820548271 63 162.13692461641097" width="59" height="158.14"><defs><path d="M59 134.88C59 134.86 59 134.85 59 134.84C59 134.82 59 134.81 59 134.79C58.95 125.87 58.7 81.24 58.25 0.93C57.52 0.93 51.65 0.93 50.91 0.93C51.25 71.6 51.43 110.87 51.47 118.72C46.09 113.6 38.19 110.35 29.37 110.35C13.15 110.35 0 121.31 0 134.84C0 148.36 13.15 159.07 29.37 159.07C45.45 159.07 58.51 149.09 58.73 134.68C58.75 134.68 58.84 134.68 59 134.68C59 134.69 59 134.76 59 134.88" id="baFPXA1Se"></path></defs><g><g><use xlink:href="#baFPXA1Se" opacity="1" fill="#272935" fill-opacity="1"></use><g><use xlink:href="#baFPXA1Se" opacity="1" fill-opacity="0" stroke="#000000" stroke-width="1" stroke-opacity="0"></use></g></g></g></svg>