<?xml version="1.0" encoding="UTF-8" standalone="no"?>
<!DOCTYPE svg PUBLIC "-//W3C//DTD SVG 1.1//EN" "http://www.w3.org/Graphics/SVG/1.1/DTD/svg11.dtd">
<svg version="1.1" xmlns="http://www.w3.org/2000/svg" xmlns:xlink="http://www.w3.org/1999/xlink" preserveAspectRatio="xMidYMid meet" viewBox="0 0 59.96 160.71" width="59.96" height="160.71"><defs><path d="M59.96 136.13C59.96 136.11 59.96 136.1 59.96 136.09C59.96 136.07 59.96 136.06 59.96 136.04C59.91 126.97 59.66 81.62 59.2 0L51.74 0C52.08 71.82 52.27 111.73 52.31 119.71C46.84 114.5 38.81 111.2 29.85 111.2C13.36 111.2 0 122.34 0 136.09C0 149.83 13.36 160.71 29.85 160.71C46.19 160.71 59.46 150.57 59.69 135.92C59.71 135.92 59.8 135.92 59.96 135.92L59.96 136.13" id="bjbYy3Fe7"></path></defs><g><g><g><use xlink:href="#bjbYy3Fe7" opacity="1" fill="#272935" fill-opacity="1"></use><g><use xlink:href="#bjbYy3Fe7" opacity="1" fill-opacity="0" stroke="#000000" stroke-width="1" stroke-opacity="0"></use></g></g></g></g></svg>