<?xml version="1.0" encoding="UTF-8" standalone="no"?>
<!-- Created with Inkscape (http://www.inkscape.org/) -->

<svg
   xmlns:dc="http://purl.org/dc/elements/1.1/"
   xmlns:cc="http://creativecommons.org/ns#"
   xmlns:rdf="http://www.w3.org/1999/02/22-rdf-syntax-ns#"
   xmlns:svg="http://www.w3.org/2000/svg"
   xmlns="http://www.w3.org/2000/svg"
   xmlns:sodipodi="http://sodipodi.sourceforge.net/DTD/sodipodi-0.dtd"
   xmlns:inkscape="http://www.inkscape.org/namespaces/inkscape"
   width="26.297541mm"
   height="42.547119mm"
   viewBox="0 0 26.297541 42.547119"
   version="1.1"
   id="svg426"
   inkscape:version="0.92.3 (2405546, 2018-03-11)"
   sodipodi:docname="note2nb.svg">
  <defs
     id="defs420" />
  <sodipodi:namedview
     id="base"
     pagecolor="#ffffff"
     bordercolor="#666666"
     borderopacity="1.0"
     inkscape:pageopacity="0.0"
     inkscape:pageshadow="2"
     inkscape:zoom="0.7"
     inkscape:cx="125.81431"
     inkscape:cy="15.895092"
     inkscape:document-units="mm"
     inkscape:current-layer="layer1"
     showgrid="false"
     inkscape:window-width="454"
     inkscape:window-height="405"
     inkscape:window-x="2438"
     inkscape:window-y="241"
     inkscape:window-maximized="0"
     fit-margin-top="0"
     fit-margin-left="0"
     fit-margin-right="0"
     fit-margin-bottom="0" />
  <metadata
     id="metadata423">
    <rdf:RDF>
      <cc:Work
         rdf:about="">
        <dc:format>image/svg+xml</dc:format>
        <dc:type
           rdf:resource="http://purl.org/dc/dcmitype/StillImage" />
        <dc:title></dc:title>
      </cc:Work>
    </rdf:RDF>
  </metadata>
  <g
     inkscape:label="Layer 1"
     inkscape:groupmode="layer"
     id="layer1"
     transform="translate(-116.92095,-87.4943)">
    <g
       transform="translate(-68.608399,-171.70668)"
       id="layer1-3"
       inkscape:label="Layer 1">
      <path
         inkscape:connector-curvature="0"
         id="path80"
         style="fill:#272935;fill-opacity:1;fill-rule:nonzero;stroke:none;stroke-width:0.03527778"
         d="m 203.92414,299.70199 c -3.19052,0 -5.78661,-2.00589 -5.78661,-4.47145 0,-2.46592 2.59609,-4.47181 5.78661,-4.47181 3.19052,0 5.78591,2.00589 5.78591,4.47181 0,2.46556 -2.59539,4.47145 -5.78591,4.47145 z m 7.90258,-4.46122 c 0,-0.004 0,-0.007 0,-0.0102 0,-0.004 -3.5e-4,-0.009 -3.5e-4,-0.0131 l -0.13159,-36.01649 h -1.97556 l 0.15064,31.69179 c -1.44851,-1.37901 -3.57435,-2.25072 -5.94572,-2.25072 -4.36492,0 -7.90328,2.94957 -7.90328,6.58848 0,3.63855 3.53836,6.51757 7.90328,6.51757 4.32611,0 7.83837,-2.68323 7.89975,-6.56379 h 0.003 v 0.0564" />
    </g>
    <path
       d="m 123.31709,125.25904 h -2.93345 v -2.95182 h 2.93345 z m 3.85014,-2.95182 v -1.18072 h -2.7501 v -3.54218 h -1.10004 v 3.54218 h -2.93345 v -2.55824 h -1.10004 v 2.55824 h -2.7501 v 1.18072 h 2.7501 v 2.95182 h -2.7501 v 1.18072 h 2.7501 v 3.54218 h 1.10004 v -3.54218 h 2.93345 v 2.55824 h 1.10004 v -2.55824 h 2.7501 v -1.18072 h -2.7501 v -2.95182 h 2.7501"
       style="fill:#272935;fill-opacity:1;fill-rule:nonzero;stroke:none;stroke-width:0.01899449"
       id="path98"
       inkscape:connector-curvature="0" />
  </g>
</svg>
