<?xml version="1.0" encoding="UTF-8" standalone="no"?>
<!-- Created with Inkscape (http://www.inkscape.org/) -->

<svg
   xmlns:dc="http://purl.org/dc/elements/1.1/"
   xmlns:cc="http://creativecommons.org/ns#"
   xmlns:rdf="http://www.w3.org/1999/02/22-rdf-syntax-ns#"
   xmlns:svg="http://www.w3.org/2000/svg"
   xmlns="http://www.w3.org/2000/svg"
   xmlns:sodipodi="http://sodipodi.sourceforge.net/DTD/sodipodi-0.dtd"
   xmlns:inkscape="http://www.inkscape.org/namespaces/inkscape"
   width="26.23184mm"
   height="42.547119mm"
   viewBox="0 0 26.23184 42.547119"
   version="1.1"
   id="svg487"
   inkscape:version="0.92.3 (2405546, 2018-03-11)"
   sodipodi:docname="note4ns.svg">
  <defs
     id="defs481" />
  <sodipodi:namedview
     id="base"
     pagecolor="#ffffff"
     bordercolor="#666666"
     borderopacity="1.0"
     inkscape:pageopacity="0.0"
     inkscape:pageshadow="2"
     inkscape:zoom="0.7"
     inkscape:cx="108.44475"
     inkscape:cy="-8.277399"
     inkscape:document-units="mm"
     inkscape:current-layer="layer1"
     showgrid="false"
     fit-margin-top="0"
     fit-margin-left="0"
     fit-margin-right="0"
     fit-margin-bottom="0"
     inkscape:window-width="454"
     inkscape:window-height="405"
     inkscape:window-x="2823"
     inkscape:window-y="198"
     inkscape:window-maximized="0" />
  <metadata
     id="metadata484">
    <rdf:RDF>
      <cc:Work
         rdf:about="">
        <dc:format>image/svg+xml</dc:format>
        <dc:type
           rdf:resource="http://purl.org/dc/dcmitype/StillImage" />
        <dc:title></dc:title>
      </cc:Work>
    </rdf:RDF>
  </metadata>
  <g
     inkscape:label="Layer 1"
     inkscape:groupmode="layer"
     id="layer1"
     transform="translate(-32.35448,-104.12525)">
    <g
       transform="translate(-135.5102,-84.66527)"
       id="layer1-9"
       inkscape:label="Layer 1">
      <path
         inkscape:connector-curvature="0"
         id="path78"
         style="fill:#272935;fill-opacity:1;fill-rule:nonzero;stroke:none;stroke-width:0.03527778"
         d="m 194.09649,224.83021 c 0,-0.004 0,-0.007 0,-0.0102 0,-0.004 0,-0.009 0,-0.013 l -0.20073,-36.01649 h -1.97591 l 0.15064,31.69214 c -1.44851,-1.379 -3.57435,-2.25107 -5.94607,-2.25107 -4.36457,0 -7.90293,2.94957 -7.90293,6.58848 0,3.63855 3.53836,6.51757 7.90293,6.51757 4.32682,0 7.83907,-2.68323 7.9001,-6.56379 h 0.072 v 0.0565" />
    </g>
    <path
       d="m 39.178035,141.36271 h -2.307826 v -2.23186 h 2.307826 z m 3.029023,-2.23186 v -0.89274 h -2.163587 v -2.67823 h -0.865436 v 2.67823 h -2.307826 v -1.93428 h -0.865435 v 1.93428 h -2.163588 v 0.89274 h 2.163588 v 2.23186 h -2.163588 v 0.89274 h 2.163588 v 2.67824 h 0.865435 v -2.67824 h 2.307826 v 1.93428 h 0.865436 v -1.93428 h 2.163587 v -0.89274 h -2.163587 v -2.23186 h 2.163587"
       style="fill:#272935;fill-opacity:1;fill-rule:nonzero;stroke:none;stroke-width:0.01464972"
       id="path98"
       inkscape:connector-curvature="0" />
  </g>
</svg>
