<?xml version="1.0" encoding="UTF-8" standalone="no"?>
<!DOCTYPE svg PUBLIC "-//W3C//DTD SVG 1.1//EN" "http://www.w3.org/Graphics/SVG/1.1/DTD/svg11.dtd">
<svg version="1.1" xmlns="http://www.w3.org/2000/svg" xmlns:xlink="http://www.w3.org/1999/xlink" preserveAspectRatio="xMidYMid meet" viewBox="-1 -1 63.70132664180028 53.77020470042589" width="59.7" height="49.77"><defs><path d="M32.73 0.11L34.14 0.25L35.52 0.45L36.89 0.7L38.23 0.99L39.55 1.34L40.84 1.74L42.1 2.18L43.33 2.67L44.53 3.21L45.69 3.79L46.82 4.41L47.91 5.07L48.97 5.77L49.98 6.51L50.96 7.29L51.89 8.1L52.78 8.95L53.62 9.83L54.41 10.74L55.16 11.68L55.85 12.65L56.49 13.65L57.08 14.68L57.62 15.73L58.09 16.8L58.51 17.9L58.87 19.02L59.16 20.16L59.4 21.31L59.56 22.49L59.67 23.68L59.7 24.89L59.67 26.09L59.56 27.28L59.4 28.46L59.16 29.61L58.87 30.75L58.51 31.87L58.09 32.97L57.62 34.04L57.08 35.09L56.49 36.12L55.85 37.12L55.16 38.09L54.41 39.03L53.62 39.94L52.78 40.82L51.89 41.67L50.96 42.48L49.98 43.26L48.97 44L47.91 44.7L46.82 45.36L45.69 45.98L44.53 46.56L43.33 47.1L42.1 47.59L40.84 48.03L39.55 48.43L38.23 48.78L36.89 49.07L35.52 49.32L34.14 49.52L32.73 49.66L31.3 49.74L29.85 49.77L28.41 49.74L26.98 49.66L25.57 49.52L24.18 49.32L22.81 49.07L21.47 48.78L20.16 48.43L18.87 48.03L17.61 47.59L16.38 47.1L15.18 46.56L14.01 45.98L12.88 45.36L11.79 44.7L10.73 44L9.72 43.26L8.74 42.48L7.81 41.67L6.92 40.82L6.08 39.94L5.29 39.03L4.54 38.09L3.85 37.12L3.21 36.12L2.62 35.09L2.09 34.04L1.61 32.97L1.19 31.87L0.83 30.75L0.54 29.61L0.31 28.46L0.14 27.28L0.03 26.09L0 24.89L0.03 23.68L0.14 22.49L0.31 21.31L0.54 20.16L0.83 19.02L1.19 17.9L1.61 16.8L2.09 15.73L2.62 14.68L3.21 13.65L3.85 12.65L4.54 11.68L5.29 10.74L6.08 9.83L6.92 8.95L7.81 8.1L8.74 7.29L9.72 6.51L10.73 5.77L11.79 5.07L12.88 4.41L14.01 3.79L15.18 3.21L16.38 2.67L17.61 2.18L18.87 1.74L20.16 1.34L21.47 0.99L22.81 0.7L24.18 0.45L25.57 0.25L26.98 0.11L28.41 0.03L29.85 0L31.3 0.03L32.73 0.11ZM26.89 8.15L25.45 8.34L24.05 8.6L22.68 8.93L21.35 9.32L20.07 9.78L18.83 10.3L17.64 10.88L16.5 11.52L15.42 12.21L14.4 12.95L13.45 13.74L12.56 14.57L11.73 15.45L10.98 16.37L10.31 17.32L9.72 18.32L9.2 19.34L8.78 20.4L8.44 21.49L8.19 22.6L8.05 23.73L7.99 24.89L8.05 26.04L8.19 27.17L8.44 28.29L8.78 29.37L9.2 30.43L9.72 31.45L10.31 32.45L10.98 33.4L11.73 34.32L12.56 35.2L13.45 36.03L14.4 36.82L15.42 37.56L16.5 38.25L17.64 38.89L18.83 39.47L20.07 39.99L21.35 40.45L22.68 40.84L24.05 41.17L25.45 41.43L26.89 41.62L28.36 41.74L29.85 41.78L31.35 41.74L32.81 41.62L34.25 41.43L35.66 41.17L37.02 40.84L38.35 40.45L39.64 39.99L40.87 39.47L42.06 38.89L43.2 38.25L44.28 37.56L45.3 36.82L46.26 36.03L47.15 35.2L47.97 34.32L48.72 33.4L49.39 32.45L49.99 31.45L50.5 30.43L50.92 29.37L51.26 28.29L51.51 27.17L51.66 26.04L51.71 24.89L51.66 23.73L51.51 22.6L51.26 21.49L50.92 20.4L50.5 19.34L49.99 18.32L49.39 17.32L48.72 16.37L47.97 15.45L47.15 14.57L46.26 13.74L45.3 12.95L44.28 12.21L43.2 11.52L42.06 10.88L40.87 10.3L39.64 9.78L38.35 9.32L37.02 8.93L35.66 8.6L34.25 8.34L32.81 8.15L31.35 8.03L29.85 7.99L28.36 8.03L26.89 8.15Z" id="b10QCVOety"></path></defs><g><g><use xlink:href="#b10QCVOety" opacity="1" fill="#272935" fill-opacity="1"></use><g><use xlink:href="#b10QCVOety" opacity="1" fill-opacity="0" stroke="#000000" stroke-width="1" stroke-opacity="0"></use></g></g></g></svg>