<?xml version="1.0" encoding="UTF-8" standalone="no"?>
<!-- Created with Inkscape (http://www.inkscape.org/) -->

<svg
   xmlns:dc="http://purl.org/dc/elements/1.1/"
   xmlns:cc="http://creativecommons.org/ns#"
   xmlns:rdf="http://www.w3.org/1999/02/22-rdf-syntax-ns#"
   xmlns:svg="http://www.w3.org/2000/svg"
   xmlns="http://www.w3.org/2000/svg"
   xmlns:sodipodi="http://sodipodi.sourceforge.net/DTD/sodipodi-0.dtd"
   xmlns:inkscape="http://www.inkscape.org/namespaces/inkscape"
   width="26.23184mm"
   height="42.547119mm"
   viewBox="0 0 26.23184 42.547119"
   version="1.1"
   id="svg487"
   inkscape:version="0.92.3 (2405546, 2018-03-11)"
   sodipodi:docname="note3nb.svg">
  <defs
     id="defs481" />
  <sodipodi:namedview
     id="base"
     pagecolor="#ffffff"
     bordercolor="#666666"
     borderopacity="1.0"
     inkscape:pageopacity="0.0"
     inkscape:pageshadow="2"
     inkscape:zoom="0.7"
     inkscape:cx="108.44475"
     inkscape:cy="-8.277399"
     inkscape:document-units="mm"
     inkscape:current-layer="layer1"
     showgrid="false"
     fit-margin-top="0"
     fit-margin-left="0"
     fit-margin-right="0"
     fit-margin-bottom="0"
     inkscape:window-width="454"
     inkscape:window-height="405"
     inkscape:window-x="2823"
     inkscape:window-y="198"
     inkscape:window-maximized="0" />
  <metadata
     id="metadata484">
    <rdf:RDF>
      <cc:Work
         rdf:about="">
        <dc:format>image/svg+xml</dc:format>
        <dc:type
           rdf:resource="http://purl.org/dc/dcmitype/StillImage" />
        <dc:title></dc:title>
      </cc:Work>
    </rdf:RDF>
  </metadata>
  <g
     inkscape:label="Layer 1"
     inkscape:groupmode="layer"
     id="layer1"
     transform="translate(-32.35448,-104.12525)">
    <g
       transform="translate(-135.5102,-84.66527)"
       id="layer1-9"
       inkscape:label="Layer 1">
      <path
         inkscape:connector-curvature="0"
         id="path78"
         style="fill:#272935;fill-opacity:1;fill-rule:nonzero;stroke:none;stroke-width:0.03527778"
         d="m 194.09649,224.83021 c 0,-0.004 0,-0.007 0,-0.0102 0,-0.004 0,-0.009 0,-0.013 l -0.20073,-36.01649 h -1.97591 l 0.15064,31.69214 c -1.44851,-1.379 -3.57435,-2.25107 -5.94607,-2.25107 -4.36457,0 -7.90293,2.94957 -7.90293,6.58848 0,3.63855 3.53836,6.51757 7.90293,6.51757 4.32682,0 7.83907,-2.68323 7.9001,-6.56379 h 0.072 v 0.0565" />
    </g>
    <path
       d="m 37.433126,143.64808 c -1.274535,0.52029 -2.994991,0.60815 -3.826922,0.61744 0.0738,-2.64884 0.668157,-4.19864 1.898949,-4.98825 0.511017,-0.32797 1.144346,-0.50844 1.782857,-0.50844 1.078835,0 1.977934,0.48079 2.290348,1.22519 0.549369,1.30773 -0.412959,2.94678 -2.145232,3.65406 z m 3.300357,-4.09497 c -0.502724,-1.19656 -1.855,-1.97058 -3.445473,-1.97058 -0.896404,0 -1.753211,0.24425 -2.477756,0.70925 -0.538588,0.34554 -0.960254,0.77954 -1.290912,1.27179 l 0.07629,-15.28619 h -1.160929 l -0.07753,20.21895 h 2.07e-4 c -0.0016,0.1171 -0.0029,0.23399 -0.0029,0.34871 l 6.46e-4,0.55701 0.590208,0.017 c 0,0 0.184505,-0.0142 0.492981,-0.0142 2.07e-4,0 2.07e-4,0 2.07e-4,0 1.02141,0 2.962029,-0.0699 4.484712,-0.69148 2.347359,-0.95824 3.608004,-3.26054 2.81028,-5.16023"
       style="fill:#272935;fill-opacity:1;fill-rule:nonzero;stroke:none;stroke-width:0.02023208"
       id="path82"
       inkscape:connector-curvature="0" />
  </g>
</svg>
