<?xml version="1.0" encoding="UTF-8" standalone="no"?>
<!-- Created with Inkscape (http://www.inkscape.org/) -->

<svg
   xmlns:dc="http://purl.org/dc/elements/1.1/"
   xmlns:cc="http://creativecommons.org/ns#"
   xmlns:rdf="http://www.w3.org/1999/02/22-rdf-syntax-ns#"
   xmlns:svg="http://www.w3.org/2000/svg"
   xmlns="http://www.w3.org/2000/svg"
   xmlns:sodipodi="http://sodipodi.sourceforge.net/DTD/sodipodi-0.dtd"
   xmlns:inkscape="http://www.inkscape.org/namespaces/inkscape"
   width="25.216127mm"
   height="13.1766mm"
   viewBox="0 0 25.216127 13.176601"
   version="1.1"
   id="svg8"
   sodipodi:docname="note1n#.svg"
   inkscape:version="0.92.3 (2405546, 2018-03-11)">
  <defs
     id="defs2" />
  <sodipodi:namedview
     id="base"
     pagecolor="#ffffff"
     bordercolor="#666666"
     borderopacity="1.0"
     inkscape:pageopacity="0.0"
     inkscape:pageshadow="2"
     inkscape:zoom="1.979899"
     inkscape:cx="-175.2956"
     inkscape:cy="41.198669"
     inkscape:document-units="mm"
     inkscape:current-layer="layer1"
     showgrid="false"
     inkscape:window-width="1920"
     inkscape:window-height="1017"
     inkscape:window-x="-8"
     inkscape:window-y="-8"
     inkscape:window-maximized="1"
     fit-margin-top="0"
     fit-margin-left="0"
     fit-margin-right="0"
     fit-margin-bottom="0" />
  <metadata
     id="metadata5">
    <rdf:RDF>
      <cc:Work
         rdf:about="">
        <dc:format>image/svg+xml</dc:format>
        <dc:type
           rdf:resource="http://purl.org/dc/dcmitype/StillImage" />
        <dc:title></dc:title>
      </cc:Work>
    </rdf:RDF>
  </metadata>
  <g
     inkscape:label="Layer 1"
     inkscape:groupmode="layer"
     id="layer1"
     transform="translate(-28.389892,-247.24767)">
    <g
       transform="translate(-190.72919,-87.146907)"
       id="layer1-1"
       inkscape:label="Layer 1">
      <path
         inkscape:connector-curvature="0"
         id="path84"
         style="fill:#272935;fill-opacity:1;fill-rule:nonzero;stroke:none;stroke-width:0.03527778"
         d="m 301.09859,184.79075 c -4.36492,0 -7.90328,2.94958 -7.90328,6.58848 0,3.63855 3.53836,6.58812 7.90328,6.58812 4.36457,0 7.90258,-2.94957 7.90258,-6.58812 0,-3.6389 -3.53801,-6.58848 -7.90258,-6.58848 z m 0,2.11667 c 3.19052,0 5.78591,2.00589 5.78591,4.47181 0,2.46556 -2.59539,4.47146 -5.78591,4.47146 -3.19052,0 -5.78661,-2.0059 -5.78661,-4.47146 0,-2.46592 2.59609,-4.47181 5.78661,-4.47181" />
    </g>
    <path
       d="m 100.37997,109.14625 c -0.537117,0.32315 -1.262157,0.37773 -1.612748,0.3835 0.03112,-1.64524 0.281575,-2.60784 0.800256,-3.09829 0.215354,-0.2037 0.482252,-0.3158 0.751332,-0.3158 0.45465,0 0.83355,0.29863 0.96521,0.76099 0.23151,0.81225 -0.17404,1.83029 -0.90405,2.2696 z m 1.39084,-2.54346 c -0.21186,-0.7432 -0.78174,-1.22395 -1.452,-1.22395 -0.377763,0 -0.738836,0.1517 -1.044177,0.44052 -0.226971,0.21463 -0.404669,0.48419 -0.544015,0.78993 l 0.03215,-9.494505 h -0.489246 l -0.03266,12.558325 h 8.7e-5 c -5.11e-4,0.0727 -0.001,0.14534 -0.001,0.21658 l 2.5e-4,0.34598 0.248723,0.0105 c 0,0 0.07776,-0.009 0.207755,-0.009 8.6e-5,0 8.6e-5,0 8.6e-5,0 0.430443,0 1.24826,-0.0434 1.889957,-0.42949 0.98923,-0.59518 1.52049,-2.02517 1.18431,-3.2051"
       style="fill:#272935;fill-opacity:1;fill-rule:nonzero;stroke:none;stroke-width:0.01035107"
       id="path82"
       inkscape:connector-curvature="0" />
    <g
       transform="translate(-255.39515,62.456921)"
       id="layer1-2"
       inkscape:label="Layer 1">
      <path
         inkscape:connector-curvature="0"
         id="path84-3"
         style="fill:#272935;fill-opacity:1;fill-rule:nonzero;stroke:none;stroke-width:0.03527778"
         d="m 301.09859,184.79075 c -4.36492,0 -7.90328,2.94958 -7.90328,6.58848 0,3.63855 3.53836,6.58812 7.90328,6.58812 4.36457,0 7.90258,-2.94957 7.90258,-6.58812 0,-3.6389 -3.53801,-6.58848 -7.90258,-6.58848 z m 0,2.11667 c 3.19052,0 5.78591,2.00589 5.78591,4.47181 0,2.46556 -2.59539,4.47146 -5.78591,4.47146 -3.19052,0 -5.78661,-2.0059 -5.78661,-4.47146 0,-2.46592 2.59609,-4.47181 5.78661,-4.47181" />
    </g>
    <path
       d="m 33.599691,254.7891 h -2.252886 v -2.17352 h 2.252886 z m 2.956913,-2.17352 v -0.86942 h -2.11208 v -2.60823 h -0.844833 v 2.60823 h -2.252886 v -1.88371 h -0.844832 v 1.88371 h -2.112081 v 0.86942 h 2.112081 v 2.17352 h -2.112081 v 0.8694 h 2.112081 v 2.60823 h 0.844832 v -2.60823 h 2.252886 v 1.88372 h 0.844833 v -1.88372 h 2.11208 v -0.8694 h -2.11208 v -2.17352 h 2.11208"
       style="fill:#272935;fill-opacity:1;fill-rule:nonzero;stroke:none;stroke-width:0.01428388"
       id="path98"
       inkscape:connector-curvature="0" />
  </g>
</svg>
