<?xml version="1.0" encoding="UTF-8"?>
<!-- Created with Inkscape (http://www.inkscape.org/) -->
<svg width="31.75mm" height="89.798mm" version="1.1" viewBox="0 0 31.75 89.798" xmlns="http://www.w3.org/2000/svg" xmlns:cc="http://creativecommons.org/ns#" xmlns:dc="http://purl.org/dc/elements/1.1/" xmlns:rdf="http://www.w3.org/1999/02/22-rdf-syntax-ns#">
 <metadata>
  <rdf:RDF>
   <cc:Work rdf:about="">
    <dc:format>image/svg+xml</dc:format>
    <dc:type rdf:resource="http://purl.org/dc/dcmitype/StillImage"/>
    <dc:title/>
   </cc:Work>
  </rdf:RDF>
 </metadata>
 <g transform="translate(-132.29 -60.845)">
  <path d="m159.87 118.27c-0.0406 2.388-1.1807 5.1241-3.393 7.0679-1.1691 1.0573-2.6194 1.8778-4.2111 2.3964-0.63006-4.6623-1.3021-9.5779-1.9036-14.715-0.19085-1.6566-0.37747-3.3362-0.55739-5.037 0.01-1e-3 0.0176-2e-3 0.0279-4e-3 0.20073-0.0212 0.39864-0.0589 0.60255-0.0593 0.80892-0.0522 1.6411 0.078 2.4853 0.34678 1.675 0.56798 3.3905 1.8129 4.723 3.5669 0.66111 0.87736 1.233 1.8711 1.6334 2.951 0.20143 0.54045 0.36159 1.1007 0.46072 1.6753 0.061 0.28786 0.0811 0.57855 0.11289 0.87206l0.0145 0.22049 8e-3 0.11113 4e-3 0.0554c-4e-3 0.0808 0.0109-0.049 8e-3 -9e-3zm-11.97 10.083c-0.80892-0.0254-1.6228-0.11712-2.4271-0.28751-0.80786-0.15275-1.6023-0.39793-2.3798-0.69568l-0.58279-0.22789-0.57044-0.26317-0.28434-0.13406-0.26-0.14288-0.58279-0.32138c-0.6611-0.42298-1.3434-0.8957-1.9251-1.4799-0.58632-0.57115-1.1229-1.1966-1.5438-1.8994-0.42862-0.69426-0.79975-1.4266-1.0555-2.208-0.26776-0.77435-0.44485-1.5833-0.52776-2.4084-0.0621-0.4071-0.0579-0.82867-0.0847-1.2404 0.0138-0.41981-3e-3 -0.83397 0.0452-1.2534 0.25647-3.3577 1.6559-6.6301 3.5832-9.5553 0.97119-1.4668 2.093-2.8526 3.3108-4.167 0.6096-0.65723 1.2428-1.2989 1.9075-1.9131 0.70661-0.66534 1.415-1.3317 2.1248-1.9995 0.0893-0.08678 0.17815-0.17462 0.2674-0.26141 0.1905 1.9685 0.39758 3.9123 0.62124 5.8332-0.0579 0.0247-0.11253 0.0494-0.17533 0.0755l-0.46319 0.19791c-0.28787 0.14747-0.57609 0.28046-0.8509 0.43886-2.207 1.2622-3.8241 3.096-4.6969 4.9572-0.89923 1.8598-1.1416 3.6982-1.0368 5.2335 0.11571 1.543 0.58243 2.8028 1.1673 3.6724 0.56868 0.88617 1.2333 1.3547 1.6817 1.5998 0.11395 0.0586 0.21414 0.11007 0.30022 0.15382 0.0885 0.0318 0.16263 0.0579 0.22189 0.0783 0.11924 0.0423 0.17957 0.0635 0.17957 0.0635s-0.0437-0.0469-0.12912-0.13935c-0.0882-0.09-0.21731-0.23354-0.35137-0.42087-0.27269-0.38029-0.61242-0.9913-0.78246-1.8277-0.17639-0.83043-0.1972-1.886 0.0737-3.0462 0.25682-1.1582 0.81315-2.4179 1.6997-3.5567 0.89393-1.1342 2.1308-2.1195 3.6855-2.7361 0.0215-0.01 0.0445-0.0169 0.0663-0.0254 0.21696 1.6136 0.44627 3.2092 0.69039 4.7808 0.51259 3.3891 1.0703 6.6746 1.6161 9.8474 0.27234 1.5864 0.5401 3.1454 0.80292 4.675 0.0145 0.0889 0.0279 0.17533 0.042 0.26388-1.0887 0.25929-2.2271 0.3817-3.3771 0.33973zm0.11077-47.995c5e-3 -1.905 0.0505-3.8181 0.15805-5.7284 0.10512-1.9092 0.28398-3.8209 0.61101-5.6797 0.16404-0.92675 0.36265-1.8429 0.62724-2.704 0.25964-0.84667 0.61348-1.6912 1.0149-2.1812 0.13264-0.16722 0.25188-0.24553 0.30833-0.27164l0.072-0.0018c-0.10266 0.0028-0.0169 0.0056-0.0346 0.0081 0.0229 0.0018 0.0565 0.0127 0.0949 0.02505 0.078 0.02822 0.17991 0.0695 0.29598 0.14605 0.47978 0.28716 1.0086 0.93733 1.4037 1.6535 0.80504 1.4683 1.239 3.2554 1.4457 5.0454 0.20003 1.8002 0.16546 3.652 0.025 5.4783l-0.06 0.66393-0.085 0.74154c-0.0607 0.4071-0.12664 0.87066-0.20814 1.2912-0.17497 0.85125-0.39758 1.6697-0.70485 2.4525-0.59513 1.5674-1.5215 3.0349-2.6155 4.4739-0.66534 0.8569-1.3836 1.7039-2.129 2.5453-0.12736-2.6292-0.21379-5.2836-0.21978-7.958zm2.6988-16.763h0.0116-0.0116zm0.054 0.19121c0.012-0.0011-0.01 0.0025-0.0307 0.0056 0.025-0.01129 0.0409-0.01552 0.0307-0.0056zm12.956 49.738c-0.18909-0.83326-0.44662-1.6415-0.7867-2.3996-0.33196-0.76129-0.7119-1.4933-1.1684-2.1639-1.778-2.7044-4.4104-4.7339-7.3903-5.5605-0.74048-0.20743-1.4979-0.34043-2.2507-0.39299-0.75424-0.0342-1.5021-0.0222-2.2225 0.0921-0.19509 0.0233-0.38665 0.0572-0.57609 0.096-0.22119-2.3273-0.42404-4.6905-0.60501-7.0834 2.1491-2.1706 4.2242-4.4753 6.066-7.1878 1.1945-1.7872 2.3072-3.7835 2.9714-5.9951 0.34325-1.0968 0.56656-2.2236 0.71296-3.3345 0.0684-0.56233 0.10972-1.089 0.14993-1.6715l0.0314-0.74612 0.0159-0.82656c0.018-2.1477-0.21519-4.2961-0.73765-6.4071-0.52352-2.1068-1.3021-4.1815-2.6173-6.0766-0.33196-0.47343-0.70097-0.93416-1.137-1.3677-0.43568-0.43251-0.93028-0.85231-1.5674-1.1853-0.31362-0.16722-0.67699-0.30692-1.0788-0.3937-0.2032-0.04233-0.4131-0.07161-0.63782-0.07514-0.0794-0.0011-0.0554-6e-3 -0.21943-0.0018l-0.0924 6e-3c-0.0924 0.0063-0.3235 0.03351-0.42016 0.06068-0.49565 0.10795-0.91651 0.34255-1.2407 0.59725-0.32737 0.25647-0.57361 0.53481-0.77681 0.80821-0.78 1.1014-1.0887 2.1534-1.3751 3.1859-0.2667 1.0326-0.43709 2.0479-0.57044 3.0565-0.48225 4.0298-0.50553 7.9541-0.40958 11.827 0.0762 3.4036 0.25682 6.755 0.49495 10.055-1.1709 1.2379-2.3774 2.4656-3.5669 3.689-0.68791 0.70414-1.3712 1.373-2.0652 2.1036-0.72531 0.75388-1.4252 1.5325-2.0821 2.346-1.318 1.6249-2.4733 3.3796-3.4354 5.2306-0.97296 1.8447-1.7293 3.8019-2.2147 5.8233-0.4946 2.0165-0.7172 4.0996-0.58279 6.1609 0.0169 0.51364 0.097 1.0276 0.15346 1.536 0.0967 0.508 0.16545 1.0139 0.30621 1.5106 0.23248 0.99801 0.60184 1.9593 1.0301 2.878 0.85549 1.8443 2.1579 3.4382 3.6689 4.6708l0.57609 0.4498 0.60289 0.40463c0.38559 0.27552 0.8502 0.508 1.2651 0.74754l0.60114 0.2854 0.33231 0.15628 0.32315 0.12947 0.64276 0.26176 0.6537 0.22895c1.7448 0.59267 3.5588 0.92287 5.358 0.97684 1.2485 0.0402 2.4906-0.0564 3.7056-0.27023 0.13159 0.84138 0.25894 1.676 0.37783 2.4991 0.22013 1.4718 0.37994 2.9189 0.50623 4.3311 0.11924 1.4125 0.20038 2.7933 0.15487 4.1282-0.0215 0.6671-0.0681 1.3215-0.1598 1.9558-0.024 0.1524-0.0416 0.33161-0.0702 0.45967l-0.0995 0.48154c-0.0822 0.29175-0.15346 0.57256-0.26494 0.85937-0.40499 1.1412-1.0717 2.1361-1.8842 2.9016-0.82267 0.75565-1.7836 1.2809-2.7767 1.5364l-0.37395 0.0811-0.0928 0.0208c-9e-3 2e-3 -0.0448 0.01-0.0321 6e-3l-0.0519 8e-3 -0.20637 0.0314c-0.25153 0.0328-0.48154 0.0497-0.73554 0.0557-0.49213 8e-3 -0.97473-0.0243-1.4312-0.12417-0.45544-0.10019-0.88618-0.24589-1.2806-0.43004-0.39053-0.19685-0.73836-0.43568-1.0425-0.69639-0.60007-0.53622-0.9966-1.1793-1.1853-1.8316-0.10372-0.32279-0.14499-0.65405-0.16052-0.97296-0.0113-0.15769-8e-3 -0.31785 7.2e-4 -0.47307l0.0215-0.23213c9e-3 0.0667 3e-3 -3e-3 6e-3 2e-3l2e-3 -0.037 4e-3 -0.0744 7e-3 -0.14711c0.0423-0.22154 0.0928-0.53728 0.18274-0.77576 0.0854-0.25012 0.18838-0.47872 0.30056-0.68227 0.14711-0.25964 0.31221-0.46284 0.47908-0.62512 0.629 0.4579 1.4012 0.73095 2.2387 0.73095 2.1054 0 3.8125-1.7067 3.8125-3.8121 0-2.1057-1.6718-3.8823-3.7768-3.9222-1.5007-0.0282-3.0413 0.39794-4.4619 1.8817-1.1363 1.1868-2.0345 2.879-2.2613 4.675-0.0635 0.44944-0.0907 0.91229-0.0776 1.3846 0.0183 0.48472 0.0547 0.92217 0.15452 1.4743 0.19685 0.88548 0.58314 1.9085 1.1695 2.8021 0.59196 0.90276 1.4086 1.7085 2.3837 2.2796 0.48189 0.29245 1.0022 0.53163 1.5487 0.70308 0.54152 0.18415 1.1088 0.30939 1.6895 0.37289 0.58032 0.0642 1.174 0.0744 1.7716 0.018 0.29033-0.0268 0.60818-0.0751 0.90522-0.13723l0.20391-0.0455 0.12135-0.0293 0.11113-0.0314 0.44626-0.12665c0.58703-0.20249 1.1677-0.45684 1.7134-0.79198 0.54187-0.34079 1.0513-0.74577 1.5134-1.2104 0.90417-0.94615 1.6245-2.1121 2.0387-3.4163 0.11113-0.31892 0.19086-0.66993 0.27023-1.0111l0.0829-0.48506c0.036-0.19403 0.0444-0.34502 0.0684-0.5207 0.0815-0.67945 0.1143-1.3667 0.1203-2.0595 0.0356-2.7735-0.31256-5.6339-0.6791-8.6039-0.11183-0.84808-0.22648-1.7088-0.3429-2.5756 1.9343-0.45332 3.7786-1.221 5.4201-2.3184 1.4563-0.97967 2.7615-2.2063 3.7751-3.6569 0.51646-0.71896 0.94262-1.5014 1.294-2.3128 0.18132-0.40499 0.32702-0.82197 0.46319-1.2428 0.0744-0.20179 0.12453-0.44944 0.18556-0.6738 0.0571-0.22825 0.11924-0.4766 0.14782-0.64029l0.11042-0.54928 0.0854-0.7306c0.0402-0.44344 0.0632-0.89006 0.0459-1.3286-0.012-0.88194-0.12171-1.7487-0.31962-2.5802" fill="#272935"/>
 </g>
</svg>
